<?xml version="1.0" standalone="no"?><!-- Generator: Gravit.io --><svg xmlns="http://www.w3.org/2000/svg" xmlns:xlink="http://www.w3.org/1999/xlink" style="isolation:isolate" viewBox="0 0 596 596" width="596" height="596"><defs><clipPath id="_clipPath_1EtwVFok2BVDiy7r2xcaJd5dx37a1wvP"><rect width="596" height="596"/></clipPath></defs><g clip-path="url(#_clipPath_1EtwVFok2BVDiy7r2xcaJd5dx37a1wvP)"><clipPath id="_clipPath_QS3yjk6HcOLiIRLzghBafqtosKP2cgC2"><path d=" M 0.06 596 L 595.275 596 L 595.275 0.725 L 0.06 0.725 L 0.06 596 Z " fill="rgb(255,255,255)"/></clipPath><g clip-path="url(#_clipPath_QS3yjk6HcOLiIRLzghBafqtosKP2cgC2)"><path d=" M 0 0.725 L 14.002 0.725 L 0 8.55 L 0 0.725 Z " fill="rgb(251,162,249)"/></g><path d=" M 14.002 0.725 L 42.008 0.725 L 28.005 8.55 L 14.002 0.725 Z " fill="rgb(251,158,249)"/><path d=" M 42.008 0.725 L 70.014 0.725 L 56.01 8.55 L 42.008 0.725 Z " fill="rgb(252,164,249)"/><path d=" M 70.014 0.725 L 98.019 0.725 L 84.016 8.55 L 70.014 0.725 Z " fill="rgb(252,159,248)"/><path d=" M 98.019 0.725 L 126.024 0.725 L 112.021 8.55 L 98.019 0.725 Z " fill="rgb(252,168,249)"/><path d=" M 126.024 0.725 L 154.029 0.725 L 140.027 8.55 L 126.024 0.725 Z " fill="rgb(252,183,249)"/><path d=" M 154.029 0.725 L 182.035 0.725 L 168.032 8.55 L 154.029 0.725 Z " fill="rgb(252,163,249)"/><path d=" M 182.035 0.725 L 210.04 0.725 L 196.037 8.55 L 182.035 0.725 Z " fill="rgb(252,133,249)"/><path d=" M 210.04 0.725 L 238.045 0.725 L 224.043 8.55 L 210.04 0.725 Z " fill="rgb(251,113,248)"/><path d=" M 238.045 0.725 L 266.051 0.725 L 252.048 8.55 L 238.045 0.725 Z " fill="rgb(252,105,249)"/><path d=" M 266.051 0.725 L 294.056 0.725 L 280.053 8.55 L 266.051 0.725 Z " fill="rgb(252,110,249)"/><path d=" M 294.056 0.725 L 322.061 0.725 L 308.059 8.55 L 294.056 0.725 Z " fill="rgb(252,121,249)"/><path d=" M 322.061 0.725 L 350.067 0.725 L 336.063 8.55 L 322.061 0.725 Z " fill="rgb(252,132,249)"/><path d=" M 350.067 0.725 L 378.072 0.725 L 364.069 8.55 L 350.067 0.725 Z " fill="rgb(252,123,249)"/><path d=" M 378.072 0.725 L 406.077 0.725 L 392.074 8.55 L 378.072 0.725 Z " fill="rgb(251,116,248)"/><path d=" M 406.077 0.725 L 434.083 0.725 L 420.081 8.55 L 406.077 0.725 Z " fill="rgb(251,118,248)"/><path d=" M 434.083 0.725 L 462.088 0.725 L 448.086 8.55 L 434.083 0.725 Z " fill="rgb(251,113,248)"/><path d=" M 462.088 0.725 L 490.093 0.725 L 476.091 8.55 L 462.088 0.725 Z " fill="rgb(251,103,249)"/><path d=" M 490.093 0.725 L 518.099 0.725 L 504.097 8.55 L 490.093 0.725 Z " fill="rgb(251,100,248)"/><path d=" M 518.099 0.725 L 546.104 0.725 L 532.102 8.55 L 518.099 0.725 Z " fill="rgb(251,103,248)"/><path d=" M 546.104 0.725 L 574.11 0.725 L 560.106 8.55 L 546.104 0.725 Z " fill="rgb(250,95,247)"/><clipPath id="_clipPath_5TG6lfJx3cl6vA3hDtEcHV5vf9aeAllk"><path d=" M 0.06 596 L 595.275 596 L 595.275 0.725 L 0.06 0.725 L 0.06 596 Z " fill="rgb(255,255,255)"/></clipPath><g clip-path="url(#_clipPath_5TG6lfJx3cl6vA3hDtEcHV5vf9aeAllk)"><path d=" M 595.275 0.725 L 574.11 0.725 L 588.112 8.55 L 595.275 4.547 L 595.275 0.725 Z " fill="rgb(249,92,245)"/><path d=" M 14.002 0.725 L 28.005 8.55 L 28.005 24.223 L 14.002 32.048 L 0 24.223 L 0 8.55 L 14.002 0.725 Z " fill="rgb(252,174,250)"/></g><path d=" M 42.008 0.725 L 56.01 8.55 L 56.01 24.223 L 42.008 32.048 L 28.005 24.223 L 28.005 8.55 L 42.008 0.725 Z " fill="rgb(252,170,249)"/><path d=" M 70.014 0.725 L 84.016 8.55 L 84.016 24.223 L 70.014 32.048 L 56.01 24.223 L 56.01 8.55 L 70.014 0.725 Z " fill="rgb(252,168,249)"/><path d=" M 98.019 0.725 L 112.021 8.55 L 112.021 24.223 L 98.019 32.048 L 84.016 24.223 L 84.016 8.55 L 98.019 0.725 Z " fill="rgb(252,175,249)"/><path d=" M 126.024 0.725 L 140.027 8.55 L 140.027 24.223 L 126.024 32.048 L 112.021 24.223 L 112.021 8.55 L 126.024 0.725 Z " fill="rgb(252,184,249)"/><path d=" M 154.029 0.725 L 168.032 8.55 L 168.032 24.223 L 154.029 32.048 L 140.027 24.223 L 140.027 8.55 L 154.029 0.725 Z " fill="rgb(252,180,249)"/><path d=" M 182.035 0.725 L 196.037 8.55 L 196.037 24.223 L 182.035 32.048 L 168.032 24.223 L 168.032 8.55 L 182.035 0.725 Z " fill="rgb(252,169,249)"/><path d=" M 210.04 0.725 L 224.043 8.55 L 224.043 24.223 L 210.04 32.048 L 196.037 24.223 L 196.037 8.55 L 210.04 0.725 Z " fill="rgb(251,135,248)"/><path d=" M 238.045 0.725 L 252.048 8.55 L 252.048 24.223 L 238.045 32.048 L 224.043 24.223 L 224.043 8.55 L 238.045 0.725 Z " fill="rgb(251,108,248)"/><path d=" M 266.051 0.725 L 280.053 8.55 L 280.053 24.223 L 266.051 32.048 L 252.048 24.223 L 252.048 8.55 L 266.051 0.725 Z " fill="rgb(252,109,249)"/><path d=" M 294.056 0.725 L 308.059 8.55 L 308.059 24.223 L 294.056 32.048 L 280.053 24.223 L 280.053 8.55 L 294.056 0.725 Z " fill="rgb(252,121,250)"/><path d=" M 322.061 0.725 L 336.063 8.55 L 336.063 24.223 L 322.061 32.048 L 308.059 24.223 L 308.059 8.55 L 322.061 0.725 Z " fill="rgb(252,133,249)"/><path d=" M 350.067 0.725 L 364.069 8.55 L 364.069 24.223 L 350.067 32.048 L 336.063 24.223 L 336.063 8.55 L 350.067 0.725 Z " fill="rgb(251,128,248)"/><path d=" M 378.072 0.725 L 392.074 8.55 L 392.074 24.223 L 378.072 32.048 L 364.069 24.223 L 364.069 8.55 L 378.072 0.725 Z " fill="rgb(251,111,248)"/><path d=" M 406.077 0.725 L 420.081 8.55 L 420.081 24.223 L 406.077 32.048 L 392.074 24.223 L 392.074 8.55 L 406.077 0.725 Z " fill="rgb(250,110,248)"/><path d=" M 434.083 0.725 L 448.086 8.55 L 448.086 24.223 L 434.083 32.048 L 420.081 24.223 L 420.081 8.55 L 434.083 0.725 Z " fill="rgb(250,109,248)"/><path d=" M 462.088 0.725 L 476.091 8.55 L 476.091 24.223 L 462.088 32.048 L 448.086 24.223 L 448.086 8.55 L 462.088 0.725 Z " fill="rgb(251,99,249)"/><path d=" M 490.093 0.725 L 504.097 8.55 L 504.097 24.223 L 490.093 32.048 L 476.091 24.223 L 476.091 8.55 L 490.093 0.725 Z " fill="rgb(251,98,248)"/><path d=" M 518.099 0.725 L 532.102 8.55 L 532.102 24.223 L 518.099 32.048 L 504.097 24.223 L 504.097 8.55 L 518.099 0.725 Z " fill="rgb(251,103,248)"/><path d=" M 546.104 0.725 L 560.106 8.55 L 560.106 24.223 L 546.104 32.048 L 532.102 24.223 L 532.102 8.55 L 546.104 0.725 Z " fill="rgb(251,107,248)"/><path d=" M 574.11 0.725 L 588.112 8.55 L 588.112 24.223 L 574.11 32.048 L 560.106 24.223 L 560.106 8.55 L 574.11 0.725 Z " fill="rgb(249,107,246)"/><clipPath id="_clipPath_gjdfVqgyU6iidyo3hZzizGHCmHbi34iH"><path d=" M 0.06 596 L 595.275 596 L 595.275 0.725 L 0.06 0.725 L 0.06 596 Z " fill="rgb(255,255,255)"/></clipPath><g clip-path="url(#_clipPath_gjdfVqgyU6iidyo3hZzizGHCmHbi34iH)"><path d=" M 595.275 4.547 L 588.112 8.55 L 588.112 24.223 L 595.275 28.226 L 595.275 4.547 Z " fill="rgb(248,99,245)"/><path d=" M 0 24.223 L 14.002 32.048 L 14.002 47.721 L 0 55.546 L 0 24.223 Z " fill="rgb(252,193,250)"/></g><path d=" M 28.005 24.223 L 42.008 32.048 L 42.008 47.721 L 28.005 55.546 L 14.002 47.721 L 14.002 32.048 L 28.005 24.223 Z " fill="rgb(252,177,250)"/><path d=" M 56.01 24.223 L 70.014 32.048 L 70.014 47.721 L 56.01 55.546 L 42.008 47.721 L 42.008 32.048 L 56.01 24.223 Z " fill="rgb(252,174,249)"/><path d=" M 84.016 24.223 L 98.019 32.048 L 98.019 47.721 L 84.016 55.546 L 70.014 47.721 L 70.014 32.048 L 84.016 24.223 Z " fill="rgb(252,181,249)"/><path d=" M 112.021 24.223 L 126.024 32.048 L 126.024 47.721 L 112.021 55.546 L 98.019 47.721 L 98.019 32.048 L 112.021 24.223 Z " fill="rgb(252,188,250)"/><path d=" M 140.027 24.223 L 154.029 32.048 L 154.029 47.721 L 140.027 55.546 L 126.024 47.721 L 126.024 32.048 L 140.027 24.223 Z " fill="rgb(251,187,249)"/><path d=" M 168.032 24.223 L 182.035 32.048 L 182.035 47.721 L 168.032 55.546 L 154.029 47.721 L 154.029 32.048 L 168.032 24.223 Z " fill="rgb(251,175,248)"/><path d=" M 196.037 24.223 L 210.04 32.048 L 210.04 47.721 L 196.037 55.546 L 182.035 47.721 L 182.035 32.048 L 196.037 24.223 Z " fill="rgb(251,154,248)"/><path d=" M 224.043 24.223 L 238.045 32.048 L 238.045 47.721 L 224.043 55.546 L 210.04 47.721 L 210.04 32.048 L 224.043 24.223 Z " fill="rgb(251,129,248)"/><path d=" M 252.048 24.223 L 266.051 32.048 L 266.051 47.721 L 252.048 55.546 L 238.045 47.721 L 238.045 32.048 L 252.048 24.223 Z " fill="rgb(251,115,248)"/><path d=" M 280.053 24.223 L 294.056 32.048 L 294.056 47.721 L 280.053 55.546 L 266.051 47.721 L 266.051 32.048 L 280.053 24.223 Z " fill="rgb(252,125,249)"/><path d=" M 308.059 24.223 L 322.061 32.048 L 322.061 47.721 L 308.059 55.546 L 294.056 47.721 L 294.056 32.048 L 308.059 24.223 Z " fill="rgb(251,131,248)"/><path d=" M 336.063 24.223 L 350.067 32.048 L 350.067 47.721 L 336.063 55.546 L 322.061 47.721 L 322.061 32.048 L 336.063 24.223 Z " fill="rgb(251,121,248)"/><path d=" M 364.069 24.223 L 378.072 32.048 L 378.072 47.721 L 364.069 55.546 L 350.067 47.721 L 350.067 32.048 L 364.069 24.223 Z " fill="rgb(251,99,248)"/><path d=" M 392.074 24.223 L 406.077 32.048 L 406.077 47.721 L 392.074 55.546 L 378.072 47.721 L 378.072 32.048 L 392.074 24.223 Z " fill="rgb(249,87,246)"/><path d=" M 420.081 24.223 L 434.083 32.048 L 434.083 47.721 L 420.081 55.546 L 406.077 47.721 L 406.077 32.048 L 420.081 24.223 Z " fill="rgb(249,100,246)"/><path d=" M 448.086 24.223 L 462.088 32.048 L 462.088 47.721 L 448.086 55.546 L 434.083 47.721 L 434.083 32.048 L 448.086 24.223 Z " fill="rgb(250,99,247)"/><path d=" M 476.091 24.223 L 490.093 32.048 L 490.093 47.721 L 476.091 55.546 L 462.088 47.721 L 462.088 32.048 L 476.091 24.223 Z " fill="rgb(251,99,249)"/><path d=" M 504.097 24.223 L 518.099 32.048 L 518.099 47.721 L 504.097 55.546 L 490.093 47.721 L 490.093 32.048 L 504.097 24.223 Z " fill="rgb(251,105,248)"/><path d=" M 532.102 24.223 L 546.104 32.048 L 546.104 47.721 L 532.102 55.546 L 518.099 47.721 L 518.099 32.048 L 532.102 24.223 Z " fill="rgb(251,112,248)"/><path d=" M 560.106 24.223 L 574.11 32.048 L 574.11 47.721 L 560.106 55.546 L 546.104 47.721 L 546.104 32.048 L 560.106 24.223 Z " fill="rgb(250,113,248)"/><clipPath id="_clipPath_6zgEO70kJpdfcd8m1AJdk415k5ICbKNj"><path d=" M 0.06 596 L 595.275 596 L 595.275 0.725 L 0.06 0.725 L 0.06 596 Z " fill="rgb(255,255,255)"/></clipPath><g clip-path="url(#_clipPath_6zgEO70kJpdfcd8m1AJdk415k5ICbKNj)"><path d=" M 595.275 28.226 L 588.112 24.223 L 574.11 32.048 L 574.11 47.721 L 588.112 55.546 L 595.275 51.543 L 595.275 28.226 Z " fill="rgb(249,103,246)"/><path d=" M 14.002 47.721 L 28.005 55.546 L 28.005 71.219 L 14.002 79.044 L 0 71.219 L 0 55.546 L 14.002 47.721 Z " fill="rgb(251,171,249)"/></g><path d=" M 42.008 47.721 L 56.01 55.546 L 56.01 71.219 L 42.008 79.044 L 28.005 71.219 L 28.005 55.546 L 42.008 47.721 Z " fill="rgb(251,149,248)"/><path d=" M 70.014 47.721 L 84.016 55.546 L 84.016 71.219 L 70.014 79.044 L 56.01 71.219 L 56.01 55.546 L 70.014 47.721 Z " fill="rgb(251,161,249)"/><path d=" M 98.019 47.721 L 112.021 55.546 L 112.021 71.219 L 98.019 79.044 L 84.016 71.219 L 84.016 55.546 L 98.019 47.721 Z " fill="rgb(251,180,248)"/><path d=" M 126.024 47.721 L 140.027 55.546 L 140.027 71.219 L 126.024 79.044 L 112.021 71.219 L 112.021 55.546 L 126.024 47.721 Z " fill="rgb(251,185,249)"/><path d=" M 154.029 47.721 L 168.032 55.546 L 168.032 71.219 L 154.029 79.044 L 140.027 71.219 L 140.027 55.546 L 154.029 47.721 Z " fill="rgb(251,166,248)"/><path d=" M 182.035 47.721 L 196.037 55.546 L 196.037 71.219 L 182.035 79.044 L 168.032 71.219 L 168.032 55.546 L 182.035 47.721 Z " fill="rgb(251,142,248)"/><path d=" M 210.04 47.721 L 224.043 55.546 L 224.043 71.219 L 210.04 79.044 L 196.037 71.219 L 196.037 55.546 L 210.04 47.721 Z " fill="rgb(251,142,249)"/><path d=" M 238.045 47.721 L 252.048 55.546 L 252.048 71.219 L 238.045 79.044 L 224.043 71.219 L 224.043 55.546 L 238.045 47.721 Z " fill="rgb(251,125,248)"/><path d=" M 266.051 47.721 L 280.053 55.546 L 280.053 71.219 L 266.051 79.044 L 252.048 71.219 L 252.048 55.546 L 266.051 47.721 Z " fill="rgb(251,116,248)"/><path d=" M 294.056 47.721 L 308.059 55.546 L 308.059 71.219 L 294.056 79.044 L 280.053 71.219 L 280.053 55.546 L 294.056 47.721 Z " fill="rgb(251,130,249)"/><path d=" M 322.061 47.721 L 336.063 55.546 L 336.063 71.219 L 322.061 79.044 L 308.059 71.219 L 308.059 55.546 L 322.061 47.721 Z " fill="rgb(251,131,249)"/><path d=" M 350.067 47.721 L 364.069 55.546 L 364.069 71.219 L 350.067 79.044 L 336.063 71.219 L 336.063 55.546 L 350.067 47.721 Z " fill="rgb(251,108,248)"/><path d=" M 378.072 47.721 L 392.074 55.546 L 392.074 71.219 L 378.072 79.044 L 364.069 71.219 L 364.069 55.546 L 378.072 47.721 Z " fill="rgb(250,87,248)"/><path d=" M 406.077 47.721 L 420.081 55.546 L 420.081 71.219 L 406.077 79.044 L 392.074 71.219 L 392.074 55.546 L 406.077 47.721 Z " fill="rgb(248,83,247)"/><path d=" M 434.083 47.721 L 448.086 55.546 L 448.086 71.219 L 434.083 79.044 L 420.081 71.219 L 420.081 55.546 L 434.083 47.721 Z " fill="rgb(249,91,247)"/><path d=" M 462.088 47.721 L 476.091 55.546 L 476.091 71.219 L 462.088 79.044 L 448.086 71.219 L 448.086 55.546 L 462.088 47.721 Z " fill="rgb(251,93,248)"/><path d=" M 490.093 47.721 L 504.097 55.546 L 504.097 71.219 L 490.093 79.044 L 476.091 71.219 L 476.091 55.546 L 490.093 47.721 Z " fill="rgb(251,106,248)"/><path d=" M 518.099 47.721 L 532.102 55.546 L 532.102 71.219 L 518.099 79.044 L 504.097 71.219 L 504.097 55.546 L 518.099 47.721 Z " fill="rgb(251,125,248)"/><path d=" M 546.104 47.721 L 560.106 55.546 L 560.106 71.219 L 546.104 79.044 L 532.102 71.219 L 532.102 55.546 L 546.104 47.721 Z " fill="rgb(251,128,248)"/><path d=" M 574.11 47.721 L 588.112 55.546 L 588.112 71.219 L 574.11 79.044 L 560.106 71.219 L 560.106 55.546 L 574.11 47.721 Z " fill="rgb(250,105,247)"/><clipPath id="_clipPath_TflgXIQnZfrTsbj5h2JuqxU62KtnOSNJ"><path d=" M 0.06 596 L 595.275 596 L 595.275 0.725 L 0.06 0.725 L 0.06 596 Z " fill="rgb(255,255,255)"/></clipPath><g clip-path="url(#_clipPath_TflgXIQnZfrTsbj5h2JuqxU62KtnOSNJ)"><path d=" M 595.275 51.543 L 588.112 55.546 L 588.112 71.219 L 595.275 75.222 L 595.275 51.543 Z " fill="rgb(249,96,246)"/><path d=" M 0 71.219 L 14.002 79.044 L 14.002 94.717 L 0 102.541 L 0 71.219 Z " fill="rgb(251,129,250)"/></g><path d=" M 28.005 71.219 L 42.008 79.044 L 42.008 94.717 L 28.005 102.541 L 14.002 94.717 L 14.002 79.044 L 28.005 71.219 Z " fill="rgb(249,113,247)"/><path d=" M 56.01 71.219 L 70.014 79.044 L 70.014 94.717 L 56.01 102.541 L 42.008 94.717 L 42.008 79.044 L 56.01 71.219 Z " fill="rgb(250,98,250)"/><path d=" M 84.016 71.219 L 98.019 79.044 L 98.019 94.717 L 84.016 102.541 L 70.014 94.717 L 70.014 79.044 L 84.016 71.219 Z " fill="rgb(251,123,250)"/><path d=" M 112.021 71.219 L 126.024 79.044 L 126.024 94.717 L 112.021 102.541 L 98.019 94.717 L 98.019 79.044 L 112.021 71.219 Z " fill="rgb(251,137,248)"/><path d=" M 140.027 71.219 L 154.029 79.044 L 154.029 94.717 L 140.027 102.541 L 126.024 94.717 L 126.024 79.044 L 140.027 71.219 Z " fill="rgb(251,136,248)"/><path d=" M 168.032 71.219 L 182.035 79.044 L 182.035 94.717 L 168.032 102.541 L 154.029 94.717 L 154.029 79.044 L 168.032 71.219 Z " fill="rgb(251,121,248)"/><path d=" M 196.037 71.219 L 210.04 79.044 L 210.04 94.717 L 196.037 102.541 L 182.035 94.717 L 182.035 79.044 L 196.037 71.219 Z " fill="rgb(251,110,248)"/><path d=" M 224.043 71.219 L 238.045 79.044 L 238.045 94.717 L 224.043 102.541 L 210.04 94.717 L 210.04 79.044 L 224.043 71.219 Z " fill="rgb(251,124,248)"/><path d=" M 252.048 71.219 L 266.051 79.044 L 266.051 94.717 L 252.048 102.541 L 238.045 94.717 L 238.045 79.044 L 252.048 71.219 Z " fill="rgb(251,115,247)"/><path d=" M 280.053 71.219 L 294.056 79.044 L 294.056 94.717 L 280.053 102.541 L 266.051 94.717 L 266.051 79.044 L 280.053 71.219 Z " fill="rgb(251,105,249)"/><path d=" M 308.059 71.219 L 322.061 79.044 L 322.061 94.717 L 308.059 102.541 L 294.056 94.717 L 294.056 79.044 L 308.059 71.219 Z " fill="rgb(251,110,250)"/><path d=" M 336.063 71.219 L 350.067 79.044 L 350.067 94.717 L 336.063 102.541 L 322.061 94.717 L 322.061 79.044 L 336.063 71.219 Z " fill="rgb(250,109,248)"/><path d=" M 364.069 71.219 L 378.072 79.044 L 378.072 94.717 L 364.069 102.541 L 350.067 94.717 L 350.067 79.044 L 364.069 71.219 Z " fill="rgb(250,95,247)"/><path d=" M 392.074 71.219 L 406.077 79.044 L 406.077 94.717 L 392.074 102.541 L 378.072 94.717 L 378.072 79.044 L 392.074 71.219 Z " fill="rgb(249,82,247)"/><path d=" M 420.081 71.219 L 434.083 79.044 L 434.083 94.717 L 420.081 102.541 L 406.077 94.717 L 406.077 79.044 L 420.081 71.219 Z " fill="rgb(249,80,247)"/><path d=" M 448.086 71.219 L 462.088 79.044 L 462.088 94.717 L 448.086 102.541 L 434.083 94.717 L 434.083 79.044 L 448.086 71.219 Z " fill="rgb(250,84,248)"/><path d=" M 476.091 71.219 L 490.093 79.044 L 490.093 94.717 L 476.091 102.541 L 462.088 94.717 L 462.088 79.044 L 476.091 71.219 Z " fill="rgb(251,99,249)"/><path d=" M 504.097 71.219 L 518.099 79.044 L 518.099 94.717 L 504.097 102.541 L 490.093 94.717 L 490.093 79.044 L 504.097 71.219 Z " fill="rgb(251,103,249)"/><path d=" M 532.102 71.219 L 546.104 79.044 L 546.104 94.717 L 532.102 102.541 L 518.099 94.717 L 518.099 79.044 L 532.102 71.219 Z " fill="rgb(251,110,248)"/><path d=" M 560.106 71.219 L 574.11 79.044 L 574.11 94.717 L 560.106 102.541 L 546.104 94.717 L 546.104 79.044 L 560.106 71.219 Z " fill="rgb(251,119,248)"/><clipPath id="_clipPath_UDyh148FKQNjSTJLFd0UaOEydTheWV1P"><path d=" M 0.06 596 L 595.275 596 L 595.275 0.725 L 0.06 0.725 L 0.06 596 Z " fill="rgb(255,255,255)"/></clipPath><g clip-path="url(#_clipPath_UDyh148FKQNjSTJLFd0UaOEydTheWV1P)"><path d=" M 595.275 75.222 L 588.112 71.219 L 574.11 79.044 L 574.11 94.717 L 588.112 102.541 L 595.275 98.538 L 595.275 75.222 Z " fill="rgb(251,102,248)"/><path d=" M 14.002 94.717 L 28.005 102.541 L 28.005 118.215 L 14.002 126.039 L 0 118.215 L 0 102.541 L 14.002 94.717 Z " fill="rgb(250,94,249)"/></g><path d=" M 42.008 94.717 L 56.01 102.541 L 56.01 118.215 L 42.008 126.039 L 28.005 118.215 L 28.005 102.541 L 42.008 94.717 Z " fill="rgb(248,70,248)"/><path d=" M 70.014 94.717 L 84.016 102.541 L 84.016 118.215 L 70.014 126.039 L 56.01 118.215 L 56.01 102.541 L 70.014 94.717 Z " fill="rgb(247,75,248)"/><path d=" M 98.019 94.717 L 112.021 102.541 L 112.021 118.215 L 98.019 126.039 L 84.016 118.215 L 84.016 102.541 L 98.019 94.717 Z " fill="rgb(250,95,250)"/><path d=" M 126.024 94.717 L 140.027 102.541 L 140.027 118.215 L 126.024 126.039 L 112.021 118.215 L 112.021 102.541 L 126.024 94.717 Z " fill="rgb(251,125,248)"/><path d=" M 154.029 94.717 L 168.032 102.541 L 168.032 118.215 L 154.029 126.039 L 140.027 118.215 L 140.027 102.541 L 154.029 94.717 Z " fill="rgb(251,113,249)"/><path d=" M 182.035 94.717 L 196.037 102.541 L 196.037 118.215 L 182.035 126.039 L 168.032 118.215 L 168.032 102.541 L 182.035 94.717 Z " fill="rgb(251,79,249)"/><path d=" M 210.04 94.717 L 224.043 102.541 L 224.043 118.215 L 210.04 126.039 L 196.037 118.215 L 196.037 102.541 L 210.04 94.717 Z " fill="rgb(251,85,249)"/><path d=" M 238.045 94.717 L 252.048 102.541 L 252.048 118.215 L 238.045 126.039 L 224.043 118.215 L 224.043 102.541 L 238.045 94.717 Z " fill="rgb(251,94,250)"/><path d=" M 266.051 94.717 L 280.053 102.541 L 280.053 118.215 L 266.051 126.039 L 252.048 118.215 L 252.048 102.541 L 266.051 94.717 Z " fill="rgb(251,82,249)"/><path d=" M 294.056 94.717 L 308.059 102.541 L 308.059 118.215 L 294.056 126.039 L 280.053 118.215 L 280.053 102.541 L 294.056 94.717 Z " fill="rgb(250,80,251)"/><path d=" M 322.061 94.717 L 336.063 102.541 L 336.063 118.215 L 322.061 126.039 L 308.059 118.215 L 308.059 102.541 L 322.061 94.717 Z " fill="rgb(250,90,249)"/><path d=" M 350.067 94.717 L 364.069 102.541 L 364.069 118.215 L 350.067 126.039 L 336.063 118.215 L 336.063 102.541 L 350.067 94.717 Z " fill="rgb(249,85,247)"/><path d=" M 378.072 94.717 L 392.074 102.541 L 392.074 118.215 L 378.072 126.039 L 364.069 118.215 L 364.069 102.541 L 378.072 94.717 Z " fill="rgb(249,77,248)"/><path d=" M 406.077 94.717 L 420.081 102.541 L 420.081 118.215 L 406.077 126.039 L 392.074 118.215 L 392.074 102.541 L 406.077 94.717 Z " fill="rgb(250,70,249)"/><path d=" M 434.083 94.717 L 448.086 102.541 L 448.086 118.215 L 434.083 126.039 L 420.081 118.215 L 420.081 102.541 L 434.083 94.717 Z " fill="rgb(251,70,249)"/><path d=" M 462.088 94.717 L 476.091 102.541 L 476.091 118.215 L 462.088 126.039 L 448.086 118.215 L 448.086 102.541 L 462.088 94.717 Z " fill="rgb(251,78,250)"/><path d=" M 490.093 94.717 L 504.097 102.541 L 504.097 118.215 L 490.093 126.039 L 476.091 118.215 L 476.091 102.541 L 490.093 94.717 Z " fill="rgb(251,94,250)"/><path d=" M 518.099 94.717 L 532.102 102.541 L 532.102 118.215 L 518.099 126.039 L 504.097 118.215 L 504.097 102.541 L 518.099 94.717 Z " fill="rgb(251,111,248)"/><path d=" M 546.104 94.717 L 560.106 102.541 L 560.106 118.215 L 546.104 126.039 L 532.102 118.215 L 532.102 102.541 L 546.104 94.717 Z " fill="rgb(251,108,250)"/><path d=" M 574.11 94.717 L 588.112 102.541 L 588.112 118.215 L 574.11 126.039 L 560.106 118.215 L 560.106 102.541 L 574.11 94.717 Z " fill="rgb(251,85,250)"/><clipPath id="_clipPath_gJyyueJypGHTIx00LwCLAiQpC27XXRNH"><path d=" M 0.06 596 L 595.275 596 L 595.275 0.725 L 0.06 0.725 L 0.06 596 Z " fill="rgb(255,255,255)"/></clipPath><g clip-path="url(#_clipPath_gJyyueJypGHTIx00LwCLAiQpC27XXRNH)"><path d=" M 595.275 98.538 L 588.112 102.541 L 588.112 118.215 L 595.275 122.218 L 595.275 98.538 Z " fill="rgb(251,80,249)"/><path d=" M 0 118.215 L 14.002 126.039 L 14.002 141.713 L 0 149.538 L 0 118.215 Z " fill="rgb(248,70,249)"/></g><path d=" M 28.005 118.215 L 42.008 126.039 L 42.008 141.713 L 28.005 149.538 L 14.002 141.713 L 14.002 126.039 L 28.005 118.215 Z " fill="rgb(247,69,247)"/><path d=" M 56.01 118.215 L 70.014 126.039 L 70.014 141.713 L 56.01 149.538 L 42.008 141.713 L 42.008 126.039 L 56.01 118.215 Z " fill="rgb(245,57,247)"/><path d=" M 84.016 118.215 L 98.019 126.039 L 98.019 141.713 L 84.016 149.538 L 70.014 141.713 L 70.014 126.039 L 84.016 118.215 Z " fill="rgb(248,70,249)"/><path d=" M 112.021 118.215 L 126.024 126.039 L 126.024 141.713 L 112.021 149.538 L 98.019 141.713 L 98.019 126.039 L 112.021 118.215 Z " fill="rgb(249,87,248)"/><path d=" M 140.027 118.215 L 154.029 126.039 L 154.029 141.713 L 140.027 149.538 L 126.024 141.713 L 126.024 126.039 L 140.027 118.215 Z " fill="rgb(251,103,249)"/><path d=" M 168.032 118.215 L 182.035 126.039 L 182.035 141.713 L 168.032 149.538 L 154.029 141.713 L 154.029 126.039 L 168.032 118.215 Z " fill="rgb(250,88,249)"/><path d=" M 196.037 118.215 L 210.04 126.039 L 210.04 141.713 L 196.037 149.538 L 182.035 141.713 L 182.035 126.039 L 196.037 118.215 Z " fill="rgb(250,75,251)"/><path d=" M 224.043 118.215 L 238.045 126.039 L 238.045 141.713 L 224.043 149.538 L 210.04 141.713 L 210.04 126.039 L 224.043 118.215 Z " fill="rgb(250,82,251)"/><path d=" M 252.048 118.215 L 266.051 126.039 L 266.051 141.713 L 252.048 149.538 L 238.045 141.713 L 238.045 126.039 L 252.048 118.215 Z " fill="rgb(249,70,250)"/><path d=" M 280.053 118.215 L 294.056 126.039 L 294.056 141.713 L 280.053 149.538 L 266.051 141.713 L 266.051 126.039 L 280.053 118.215 Z " fill="rgb(248,62,250)"/><path d=" M 308.059 118.215 L 322.061 126.039 L 322.061 141.713 L 308.059 149.538 L 294.056 141.713 L 294.056 126.039 L 308.059 118.215 Z " fill="rgb(248,67,248)"/><path d=" M 336.063 118.215 L 350.067 126.039 L 350.067 141.713 L 336.063 149.538 L 322.061 141.713 L 322.061 126.039 L 336.063 118.215 Z " fill="rgb(248,73,247)"/><path d=" M 364.069 118.215 L 378.072 126.039 L 378.072 141.713 L 364.069 149.538 L 350.067 141.713 L 350.067 126.039 L 364.069 118.215 Z " fill="rgb(247,77,245)"/><path d=" M 392.074 118.215 L 406.077 126.039 L 406.077 141.713 L 392.074 149.538 L 378.072 141.713 L 378.072 126.039 L 392.074 118.215 Z " fill="rgb(248,73,247)"/><path d=" M 420.081 118.215 L 434.083 126.039 L 434.083 141.713 L 420.081 149.538 L 406.077 141.713 L 406.077 126.039 L 420.081 118.215 Z " fill="rgb(249,69,248)"/><path d=" M 448.086 118.215 L 462.088 126.039 L 462.088 141.713 L 448.086 149.538 L 434.083 141.713 L 434.083 126.039 L 448.086 118.215 Z " fill="rgb(250,71,248)"/><path d=" M 476.091 118.215 L 490.093 126.039 L 490.093 141.713 L 476.091 149.538 L 462.088 141.713 L 462.088 126.039 L 476.091 118.215 Z " fill="rgb(250,85,249)"/><path d=" M 504.097 118.215 L 518.099 126.039 L 518.099 141.713 L 504.097 149.538 L 490.093 141.713 L 490.093 126.039 L 504.097 118.215 Z " fill="rgb(250,86,250)"/><path d=" M 532.102 118.215 L 546.104 126.039 L 546.104 141.713 L 532.102 149.538 L 518.099 141.713 L 518.099 126.039 L 532.102 118.215 Z " fill="rgb(250,94,248)"/><path d=" M 560.106 118.215 L 574.11 126.039 L 574.11 141.713 L 560.106 149.538 L 546.104 141.713 L 546.104 126.039 L 560.106 118.215 Z " fill="rgb(250,94,248)"/><clipPath id="_clipPath_YyoZpJN78EvaP717lHneDuK4wvQYjq1E"><path d=" M 0.06 596 L 595.275 596 L 595.275 0.725 L 0.06 0.725 L 0.06 596 Z " fill="rgb(255,255,255)"/></clipPath><g clip-path="url(#_clipPath_YyoZpJN78EvaP717lHneDuK4wvQYjq1E)"><path d=" M 595.275 122.218 L 588.112 118.215 L 574.11 126.039 L 574.11 141.713 L 588.112 149.538 L 595.275 145.535 L 595.275 122.218 Z " fill="rgb(251,72,251)"/><path d=" M 14.002 141.713 L 28.005 149.538 L 28.005 165.212 L 14.002 173.036 L 0 165.212 L 0 149.538 L 14.002 141.713 Z " fill="rgb(247,60,248)"/></g><path d=" M 42.008 141.713 L 56.01 149.538 L 56.01 165.212 L 42.008 173.036 L 28.005 165.212 L 28.005 149.538 L 42.008 141.713 Z " fill="rgb(245,57,245)"/><path d=" M 70.014 141.713 L 84.016 149.538 L 84.016 165.212 L 70.014 173.036 L 56.01 165.212 L 56.01 149.538 L 70.014 141.713 Z " fill="rgb(241,56,240)"/><path d=" M 98.019 141.713 L 112.021 149.538 L 112.021 165.212 L 98.019 173.036 L 84.016 165.212 L 84.016 149.538 L 98.019 141.713 Z " fill="rgb(244,68,244)"/><path d=" M 126.024 141.713 L 140.027 149.538 L 140.027 165.212 L 126.024 173.036 L 112.021 165.212 L 112.021 149.538 L 126.024 141.713 Z " fill="rgb(249,90,248)"/><path d=" M 154.029 141.713 L 168.032 149.538 L 168.032 165.212 L 154.029 173.036 L 140.027 165.212 L 140.027 149.538 L 154.029 141.713 Z " fill="rgb(250,81,249)"/><path d=" M 182.035 141.713 L 196.037 149.538 L 196.037 165.212 L 182.035 173.036 L 168.032 165.212 L 168.032 149.538 L 182.035 141.713 Z " fill="rgb(249,70,250)"/><path d=" M 210.04 141.713 L 224.043 149.538 L 224.043 165.212 L 210.04 173.036 L 196.037 165.212 L 196.037 149.538 L 210.04 141.713 Z " fill="rgb(250,73,250)"/><path d=" M 238.045 141.713 L 252.048 149.538 L 252.048 165.212 L 238.045 173.036 L 224.043 165.212 L 224.043 149.538 L 238.045 141.713 Z " fill="rgb(247,64,248)"/><path d=" M 266.051 141.713 L 280.053 149.538 L 280.053 165.212 L 266.051 173.036 L 252.048 165.212 L 252.048 149.538 L 266.051 141.713 Z " fill="rgb(244,58,244)"/><path d=" M 294.056 141.713 L 308.059 149.538 L 308.059 165.212 L 294.056 173.036 L 280.053 165.212 L 280.053 149.538 L 294.056 141.713 Z " fill="rgb(245,60,244)"/><path d=" M 322.061 141.713 L 336.063 149.538 L 336.063 165.212 L 322.061 173.036 L 308.059 165.212 L 308.059 149.538 L 322.061 141.713 Z " fill="rgb(248,68,247)"/><path d=" M 350.067 141.713 L 364.069 149.538 L 364.069 165.212 L 350.067 173.036 L 336.063 165.212 L 336.063 149.538 L 350.067 141.713 Z " fill="rgb(247,66,247)"/><path d=" M 378.072 141.713 L 392.074 149.538 L 392.074 165.212 L 378.072 173.036 L 364.069 165.212 L 364.069 149.538 L 378.072 141.713 Z " fill="rgb(240,59,239)"/><path d=" M 406.077 141.713 L 420.081 149.538 L 420.081 165.212 L 406.077 173.036 L 392.074 165.212 L 392.074 149.538 L 406.077 141.713 Z " fill="rgb(243,62,239)"/><path d=" M 434.083 141.713 L 448.086 149.538 L 448.086 165.212 L 434.083 173.036 L 420.081 165.212 L 420.081 149.538 L 434.083 141.713 Z " fill="rgb(248,66,248)"/><path d=" M 462.088 141.713 L 476.091 149.538 L 476.091 165.212 L 462.088 173.036 L 448.086 165.212 L 448.086 149.538 L 462.088 141.713 Z " fill="rgb(248,68,248)"/><path d=" M 490.093 141.713 L 504.097 149.538 L 504.097 165.212 L 490.093 173.036 L 476.091 165.212 L 476.091 149.538 L 490.093 141.713 Z " fill="rgb(249,75,249)"/><path d=" M 518.099 141.713 L 532.102 149.538 L 532.102 165.212 L 518.099 173.036 L 504.097 165.212 L 504.097 149.538 L 518.099 141.713 Z " fill="rgb(249,82,248)"/><path d=" M 546.104 141.713 L 560.106 149.538 L 560.106 165.212 L 546.104 173.036 L 532.102 165.212 L 532.102 149.538 L 546.104 141.713 Z " fill="rgb(250,82,250)"/><path d=" M 574.11 141.713 L 588.112 149.538 L 588.112 165.212 L 574.11 173.036 L 560.106 165.212 L 560.106 149.538 L 574.11 141.713 Z " fill="rgb(251,83,251)"/><clipPath id="_clipPath_PnMDwpg5xsle7Vzc5hJkpLVt1Drfp21O"><path d=" M 0.06 596 L 595.275 596 L 595.275 0.725 L 0.06 0.725 L 0.06 596 Z " fill="rgb(255,255,255)"/></clipPath><g clip-path="url(#_clipPath_PnMDwpg5xsle7Vzc5hJkpLVt1Drfp21O)"><path d=" M 595.275 145.535 L 588.112 149.538 L 588.112 165.212 L 595.275 169.215 L 595.275 145.535 Z " fill="rgb(251,86,250)"/><path d=" M 0 165.212 L 14.002 173.036 L 14.002 188.71 L 0 196.535 L 0 165.212 Z " fill="rgb(245,62,247)"/></g><path d=" M 28.005 165.212 L 42.008 173.036 L 42.008 188.71 L 28.005 196.535 L 14.002 188.71 L 14.002 173.036 L 28.005 165.212 Z " fill="rgb(245,62,247)"/><path d=" M 56.01 165.212 L 70.014 173.036 L 70.014 188.71 L 56.01 196.535 L 42.008 188.71 L 42.008 173.036 L 56.01 165.212 Z " fill="rgb(243,57,243)"/><path d=" M 84.016 165.212 L 98.019 173.036 L 98.019 188.71 L 84.016 196.535 L 70.014 188.71 L 70.014 173.036 L 84.016 165.212 Z " fill="rgb(235,54,232)"/><path d=" M 112.021 165.212 L 126.024 173.036 L 126.024 188.71 L 112.021 196.535 L 98.019 188.71 L 98.019 173.036 L 112.021 165.212 Z " fill="rgb(239,69,237)"/><path d=" M 140.027 165.212 L 154.029 173.036 L 154.029 188.71 L 140.027 196.535 L 126.024 188.71 L 126.024 173.036 L 140.027 165.212 Z " fill="rgb(249,78,248)"/><path d=" M 168.032 165.212 L 182.035 173.036 L 182.035 188.71 L 168.032 196.535 L 154.029 188.71 L 154.029 173.036 L 168.032 165.212 Z " fill="rgb(248,71,248)"/><path d=" M 196.037 165.212 L 210.04 173.036 L 210.04 188.71 L 196.037 196.535 L 182.035 188.71 L 182.035 173.036 L 196.037 165.212 Z " fill="rgb(247,72,248)"/><path d=" M 224.043 165.212 L 238.045 173.036 L 238.045 188.71 L 224.043 196.535 L 210.04 188.71 L 210.04 173.036 L 224.043 165.212 Z " fill="rgb(247,67,247)"/><path d=" M 252.048 165.212 L 266.051 173.036 L 266.051 188.71 L 252.048 196.535 L 238.045 188.71 L 238.045 173.036 L 252.048 165.212 Z " fill="rgb(241,57,244)"/><path d=" M 280.053 165.212 L 294.056 173.036 L 294.056 188.71 L 280.053 196.535 L 266.051 188.71 L 266.051 173.036 L 280.053 165.212 Z " fill="rgb(235,58,233)"/><path d=" M 308.059 165.212 L 322.061 173.036 L 322.061 188.71 L 308.059 196.535 L 294.056 188.71 L 294.056 173.036 L 308.059 165.212 Z " fill="rgb(235,58,228)"/><path d=" M 336.063 165.212 L 350.067 173.036 L 350.067 188.71 L 336.063 196.535 L 322.061 188.71 L 322.061 173.036 L 336.063 165.212 Z " fill="rgb(244,60,241)"/><path d=" M 364.069 165.212 L 378.072 173.036 L 378.072 188.71 L 364.069 196.535 L 350.067 188.71 L 350.067 173.036 L 364.069 165.212 Z " fill="rgb(240,60,239)"/><path d=" M 392.074 165.212 L 406.077 173.036 L 406.077 188.71 L 392.074 196.535 L 378.072 188.71 L 378.072 173.036 L 392.074 165.212 Z " fill="rgb(239,58,238)"/><path d=" M 420.081 165.212 L 434.083 173.036 L 434.083 188.71 L 420.081 196.535 L 406.077 188.71 L 406.077 173.036 L 420.081 165.212 Z " fill="rgb(245,70,243)"/><path d=" M 448.086 165.212 L 462.088 173.036 L 462.088 188.71 L 448.086 196.535 L 434.083 188.71 L 434.083 173.036 L 448.086 165.212 Z " fill="rgb(245,69,244)"/><path d=" M 476.091 165.212 L 490.093 173.036 L 490.093 188.71 L 476.091 196.535 L 462.088 188.71 L 462.088 173.036 L 476.091 165.212 Z " fill="rgb(243,66,244)"/><path d=" M 504.097 165.212 L 518.099 173.036 L 518.099 188.71 L 504.097 196.535 L 490.093 188.71 L 490.093 173.036 L 504.097 165.212 Z " fill="rgb(246,74,248)"/><path d=" M 532.102 165.212 L 546.104 173.036 L 546.104 188.71 L 532.102 196.535 L 518.099 188.71 L 518.099 173.036 L 532.102 165.212 Z " fill="rgb(249,75,249)"/><path d=" M 560.106 165.212 L 574.11 173.036 L 574.11 188.71 L 560.106 196.535 L 546.104 188.71 L 546.104 173.036 L 560.106 165.212 Z " fill="rgb(250,86,249)"/><clipPath id="_clipPath_Y7gP8mU9QPSoArQS9unQHEdflHRkUB8x"><path d=" M 0.06 596 L 595.275 596 L 595.275 0.725 L 0.06 0.725 L 0.06 596 Z " fill="rgb(255,255,255)"/></clipPath><g clip-path="url(#_clipPath_Y7gP8mU9QPSoArQS9unQHEdflHRkUB8x)"><path d=" M 595.275 169.215 L 588.112 165.212 L 574.11 173.036 L 574.11 188.71 L 588.112 196.535 L 595.275 192.532 L 595.275 169.215 Z " fill="rgb(250,88,248)"/><path d=" M 14.002 188.71 L 28.005 196.535 L 28.005 212.207 L 14.002 220.033 L 0 212.207 L 0 196.535 L 14.002 188.71 Z " fill="rgb(247,71,248)"/></g><path d=" M 42.008 188.71 L 56.01 196.535 L 56.01 212.207 L 42.008 220.033 L 28.005 212.207 L 28.005 196.535 L 42.008 188.71 Z " fill="rgb(244,71,244)"/><path d=" M 70.014 188.71 L 84.016 196.535 L 84.016 212.207 L 70.014 220.033 L 56.01 212.207 L 56.01 196.535 L 70.014 188.71 Z " fill="rgb(236,55,236)"/><path d=" M 98.019 188.71 L 112.021 196.535 L 112.021 212.207 L 98.019 220.033 L 84.016 212.207 L 84.016 196.535 L 98.019 188.71 Z " fill="rgb(237,61,237)"/><path d=" M 126.024 188.71 L 140.027 196.535 L 140.027 212.207 L 126.024 220.033 L 112.021 212.207 L 112.021 196.535 L 126.024 188.71 Z " fill="rgb(245,69,244)"/><path d=" M 154.029 188.71 L 168.032 196.535 L 168.032 212.207 L 154.029 220.033 L 140.027 212.207 L 140.027 196.535 L 154.029 188.71 Z " fill="rgb(248,71,248)"/><path d=" M 182.035 188.71 L 196.037 196.535 L 196.037 212.207 L 182.035 220.033 L 168.032 212.207 L 168.032 196.535 L 182.035 188.71 Z " fill="rgb(247,71,247)"/><path d=" M 210.04 188.71 L 224.043 196.535 L 224.043 212.207 L 210.04 220.033 L 196.037 212.207 L 196.037 196.535 L 210.04 188.71 Z " fill="rgb(243,65,239)"/><path d=" M 238.045 188.71 L 252.048 196.535 L 252.048 212.207 L 238.045 220.033 L 224.043 212.207 L 224.043 196.535 L 238.045 188.71 Z " fill="rgb(241,57,240)"/><path d=" M 266.051 188.71 L 280.053 196.535 L 280.053 212.207 L 266.051 220.033 L 252.048 212.207 L 252.048 196.535 L 266.051 188.71 Z " fill="rgb(235,54,234)"/><path d=" M 294.056 188.71 L 308.059 196.535 L 308.059 212.207 L 294.056 220.033 L 280.053 212.207 L 280.053 196.535 L 294.056 188.71 Z " fill="rgb(233,57,226)"/><path d=" M 322.061 188.71 L 336.063 196.535 L 336.063 212.207 L 322.061 220.033 L 308.059 212.207 L 308.059 196.535 L 322.061 188.71 Z " fill="rgb(237,59,232)"/><path d=" M 350.067 188.71 L 364.069 196.535 L 364.069 212.207 L 350.067 220.033 L 336.063 212.207 L 336.063 196.535 L 350.067 188.71 Z " fill="rgb(243,59,241)"/><path d=" M 378.072 188.71 L 392.074 196.535 L 392.074 212.207 L 378.072 220.033 L 364.069 212.207 L 364.069 196.535 L 378.072 188.71 Z " fill="rgb(236,57,234)"/><path d=" M 406.077 188.71 L 420.081 196.535 L 420.081 212.207 L 406.077 220.033 L 392.074 212.207 L 392.074 196.535 L 406.077 188.71 Z " fill="rgb(238,60,234)"/><path d=" M 434.083 188.71 L 448.086 196.535 L 448.086 212.207 L 434.083 220.033 L 420.081 212.207 L 420.081 196.535 L 434.083 188.71 Z " fill="rgb(247,77,246)"/><path d=" M 462.088 188.71 L 476.091 196.535 L 476.091 212.207 L 462.088 220.033 L 448.086 212.207 L 448.086 196.535 L 462.088 188.71 Z " fill="rgb(241,70,243)"/><path d=" M 490.093 188.71 L 504.097 196.535 L 504.097 212.207 L 490.093 220.033 L 476.091 212.207 L 476.091 196.535 L 490.093 188.71 Z " fill="rgb(240,66,243)"/><path d=" M 518.099 188.71 L 532.102 196.535 L 532.102 212.207 L 518.099 220.033 L 504.097 212.207 L 504.097 196.535 L 518.099 188.71 Z " fill="rgb(247,74,248)"/><path d=" M 546.104 188.71 L 560.106 196.535 L 560.106 212.207 L 546.104 220.033 L 532.102 212.207 L 532.102 196.535 L 546.104 188.71 Z " fill="rgb(249,73,248)"/><path d=" M 574.11 188.71 L 588.112 196.535 L 588.112 212.207 L 574.11 220.033 L 560.106 212.207 L 560.106 196.535 L 574.11 188.71 Z " fill="rgb(250,103,248)"/><clipPath id="_clipPath_FV06m8kMwwhlvZrcNIyD0yC3MaJq1XrA"><path d=" M 0.06 596 L 595.275 596 L 595.275 0.725 L 0.06 0.725 L 0.06 596 Z " fill="rgb(255,255,255)"/></clipPath><g clip-path="url(#_clipPath_FV06m8kMwwhlvZrcNIyD0yC3MaJq1XrA)"><path d=" M 595.275 192.532 L 588.112 196.535 L 588.112 212.207 L 595.275 216.21 L 595.275 192.532 Z " fill="rgb(249,108,247)"/><path d=" M 0 212.207 L 14.002 220.033 L 14.002 235.705 L 0 243.53 L 0 212.207 Z " fill="rgb(248,72,248)"/></g><path d=" M 28.005 212.207 L 42.008 220.033 L 42.008 235.705 L 28.005 243.53 L 14.002 235.705 L 14.002 220.033 L 28.005 212.207 Z " fill="rgb(248,79,248)"/><path d=" M 56.01 212.207 L 70.014 220.033 L 70.014 235.705 L 56.01 243.53 L 42.008 235.705 L 42.008 220.033 L 56.01 212.207 Z " fill="rgb(243,70,244)"/><path d=" M 84.016 212.207 L 98.019 220.033 L 98.019 235.705 L 84.016 243.53 L 70.014 235.705 L 70.014 220.033 L 84.016 212.207 Z " fill="rgb(235,56,235)"/><path d=" M 112.021 212.207 L 126.024 220.033 L 126.024 235.705 L 112.021 243.53 L 98.019 235.705 L 98.019 220.033 L 112.021 212.207 Z " fill="rgb(235,59,233)"/><path d=" M 140.027 212.207 L 154.029 220.033 L 154.029 235.705 L 140.027 243.53 L 126.024 235.705 L 126.024 220.033 L 140.027 212.207 Z " fill="rgb(244,62,241)"/><path d=" M 168.032 212.207 L 182.035 220.033 L 182.035 235.705 L 168.032 243.53 L 154.029 235.705 L 154.029 220.033 L 168.032 212.207 Z " fill="rgb(248,74,247)"/><path d=" M 196.037 212.207 L 210.04 220.033 L 210.04 235.705 L 196.037 243.53 L 182.035 235.705 L 182.035 220.033 L 196.037 212.207 Z " fill="rgb(245,70,243)"/><path d=" M 224.043 212.207 L 238.045 220.033 L 238.045 235.705 L 224.043 243.53 L 210.04 235.705 L 210.04 220.033 L 224.043 212.207 Z " fill="rgb(238,58,235)"/><path d=" M 252.048 212.207 L 266.051 220.033 L 266.051 235.705 L 252.048 243.53 L 238.045 235.705 L 238.045 220.033 L 252.048 212.207 Z " fill="rgb(237,58,237)"/><path d=" M 280.053 212.207 L 294.056 220.033 L 294.056 235.705 L 280.053 243.53 L 266.051 235.705 L 266.051 220.033 L 280.053 212.207 Z " fill="rgb(232,55,228)"/><path d=" M 308.059 212.207 L 322.061 220.033 L 322.061 235.705 L 308.059 243.53 L 294.056 235.705 L 294.056 220.033 L 308.059 212.207 Z " fill="rgb(234,55,227)"/><path d=" M 336.063 212.207 L 350.067 220.033 L 350.067 235.705 L 336.063 243.53 L 322.061 235.705 L 322.061 220.033 L 336.063 212.207 Z " fill="rgb(244,61,240)"/><path d=" M 364.069 212.207 L 378.072 220.033 L 378.072 235.705 L 364.069 243.53 L 350.067 235.705 L 350.067 220.033 L 364.069 212.207 Z " fill="rgb(246,66,246)"/><path d=" M 392.074 212.207 L 406.077 220.033 L 406.077 235.705 L 392.074 243.53 L 378.072 235.705 L 378.072 220.033 L 392.074 212.207 Z " fill="rgb(241,62,239)"/><path d=" M 420.081 212.207 L 434.083 220.033 L 434.083 235.705 L 420.081 243.53 L 406.077 235.705 L 406.077 220.033 L 420.081 212.207 Z " fill="rgb(235,66,231)"/><path d=" M 448.086 212.207 L 462.088 220.033 L 462.088 235.705 L 448.086 243.53 L 434.083 235.705 L 434.083 220.033 L 448.086 212.207 Z " fill="rgb(239,70,237)"/><path d=" M 476.091 212.207 L 490.093 220.033 L 490.093 235.705 L 476.091 243.53 L 462.088 235.705 L 462.088 220.033 L 476.091 212.207 Z " fill="rgb(238,65,243)"/><path d=" M 504.097 212.207 L 518.099 220.033 L 518.099 235.705 L 504.097 243.53 L 490.093 235.705 L 490.093 220.033 L 504.097 212.207 Z " fill="rgb(243,66,246)"/><path d=" M 532.102 212.207 L 546.104 220.033 L 546.104 235.705 L 532.102 243.53 L 518.099 235.705 L 518.099 220.033 L 532.102 212.207 Z " fill="rgb(249,68,249)"/><path d=" M 560.106 212.207 L 574.11 220.033 L 574.11 235.705 L 560.106 243.53 L 546.104 235.705 L 546.104 220.033 L 560.106 212.207 Z " fill="rgb(249,82,248)"/><clipPath id="_clipPath_SjKPCbNRC9AWM9XXLilwTTPfAHB4SKrs"><path d=" M 0.06 596 L 595.275 596 L 595.275 0.725 L 0.06 0.725 L 0.06 596 Z " fill="rgb(255,255,255)"/></clipPath><g clip-path="url(#_clipPath_SjKPCbNRC9AWM9XXLilwTTPfAHB4SKrs)"><path d=" M 595.275 216.21 L 588.112 212.207 L 574.11 220.033 L 574.11 235.705 L 588.112 243.53 L 595.275 239.527 L 595.275 216.21 Z " fill="rgb(249,106,247)"/><path d=" M 14.002 235.705 L 28.005 243.53 L 28.005 259.203 L 14.002 267.028 L 0 259.203 L 0 243.53 L 14.002 235.705 Z " fill="rgb(244,77,239)"/></g><path d=" M 42.008 235.705 L 56.01 243.53 L 56.01 259.203 L 42.008 267.028 L 28.005 259.203 L 28.005 243.53 L 42.008 235.705 Z " fill="rgb(244,78,243)"/><path d=" M 70.014 235.705 L 84.016 243.53 L 84.016 259.203 L 70.014 267.028 L 56.01 259.203 L 56.01 243.53 L 70.014 235.705 Z " fill="rgb(241,57,241)"/><path d=" M 98.019 235.705 L 112.021 243.53 L 112.021 259.203 L 98.019 267.028 L 84.016 259.203 L 84.016 243.53 L 98.019 235.705 Z " fill="rgb(243,61,243)"/><path d=" M 126.024 235.705 L 140.027 243.53 L 140.027 259.203 L 126.024 267.028 L 112.021 259.203 L 112.021 243.53 L 126.024 235.705 Z " fill="rgb(240,62,238)"/><path d=" M 154.029 235.705 L 168.032 243.53 L 168.032 259.203 L 154.029 267.028 L 140.027 259.203 L 140.027 243.53 L 154.029 235.705 Z " fill="rgb(245,77,243)"/><path d=" M 182.035 235.705 L 196.037 243.53 L 196.037 259.203 L 182.035 267.028 L 168.032 259.203 L 168.032 243.53 L 182.035 235.705 Z " fill="rgb(247,81,246)"/><path d=" M 210.04 235.705 L 224.043 243.53 L 224.043 259.203 L 210.04 267.028 L 196.037 259.203 L 196.037 243.53 L 210.04 235.705 Z " fill="rgb(236,68,231)"/><path d=" M 238.045 235.705 L 252.048 243.53 L 252.048 259.203 L 238.045 267.028 L 224.043 259.203 L 224.043 243.53 L 238.045 235.705 Z " fill="rgb(235,62,233)"/><path d=" M 266.051 235.705 L 280.053 243.53 L 280.053 259.203 L 266.051 267.028 L 252.048 259.203 L 252.048 243.53 L 266.051 235.705 Z " fill="rgb(240,62,240)"/><path d=" M 294.056 235.705 L 308.059 243.53 L 308.059 259.203 L 294.056 267.028 L 280.053 259.203 L 280.053 243.53 L 294.056 235.705 Z " fill="rgb(239,61,237)"/><path d=" M 322.061 235.705 L 336.063 243.53 L 336.063 259.203 L 322.061 267.028 L 308.059 259.203 L 308.059 243.53 L 322.061 235.705 Z " fill="rgb(241,57,239)"/><path d=" M 350.067 235.705 L 364.069 243.53 L 364.069 259.203 L 350.067 267.028 L 336.063 259.203 L 336.063 243.53 L 350.067 235.705 Z " fill="rgb(245,72,241)"/><path d=" M 378.072 235.705 L 392.074 243.53 L 392.074 259.203 L 378.072 267.028 L 364.069 259.203 L 364.069 243.53 L 378.072 235.705 Z " fill="rgb(246,75,243)"/><path d=" M 406.077 235.705 L 420.081 243.53 L 420.081 259.203 L 406.077 267.028 L 392.074 259.203 L 392.074 243.53 L 406.077 235.705 Z " fill="rgb(236,61,231)"/><path d=" M 434.083 235.705 L 448.086 243.53 L 448.086 259.203 L 434.083 267.028 L 420.081 259.203 L 420.081 243.53 L 434.083 235.705 Z " fill="rgb(237,70,234)"/><path d=" M 462.088 235.705 L 476.091 243.53 L 476.091 259.203 L 462.088 267.028 L 448.086 259.203 L 448.086 243.53 L 462.088 235.705 Z " fill="rgb(244,70,247)"/><path d=" M 490.093 235.705 L 504.097 243.53 L 504.097 259.203 L 490.093 267.028 L 476.091 259.203 L 476.091 243.53 L 490.093 235.705 Z " fill="rgb(243,60,246)"/><path d=" M 518.099 235.705 L 532.102 243.53 L 532.102 259.203 L 518.099 267.028 L 504.097 259.203 L 504.097 243.53 L 518.099 235.705 Z " fill="rgb(244,62,240)"/><path d=" M 546.104 235.705 L 560.106 243.53 L 560.106 259.203 L 546.104 267.028 L 532.102 259.203 L 532.102 243.53 L 546.104 235.705 Z " fill="rgb(241,64,235)"/><path d=" M 574.11 235.705 L 588.112 243.53 L 588.112 259.203 L 574.11 267.028 L 560.106 259.203 L 560.106 243.53 L 574.11 235.705 Z " fill="rgb(243,88,237)"/><clipPath id="_clipPath_3OUVD4sPd6cEDaNqr3Fw2Ak6Usc1OEep"><path d=" M 0.06 596 L 595.275 596 L 595.275 0.725 L 0.06 0.725 L 0.06 596 Z " fill="rgb(255,255,255)"/></clipPath><g clip-path="url(#_clipPath_3OUVD4sPd6cEDaNqr3Fw2Ak6Usc1OEep)"><path d=" M 595.275 239.527 L 588.112 243.53 L 588.112 259.203 L 595.275 263.207 L 595.275 239.527 Z " fill="rgb(245,90,239)"/><path d=" M 0 259.203 L 14.002 267.028 L 14.002 282.702 L 0 290.526 L 0 259.203 Z " fill="rgb(237,62,233)"/></g><path d=" M 28.005 259.203 L 42.008 267.028 L 42.008 282.702 L 28.005 290.526 L 14.002 282.702 L 14.002 267.028 L 28.005 259.203 Z " fill="rgb(243,70,240)"/><path d=" M 56.01 259.203 L 70.014 267.028 L 70.014 282.702 L 56.01 290.526 L 42.008 282.702 L 42.008 267.028 L 56.01 259.203 Z " fill="rgb(239,67,237)"/><path d=" M 84.016 259.203 L 98.019 267.028 L 98.019 282.702 L 84.016 290.526 L 70.014 282.702 L 70.014 267.028 L 84.016 259.203 Z " fill="rgb(237,64,233)"/><path d=" M 112.021 259.203 L 126.024 267.028 L 126.024 282.702 L 112.021 290.526 L 98.019 282.702 L 98.019 267.028 L 112.021 259.203 Z " fill="rgb(238,64,234)"/><path d=" M 140.027 259.203 L 154.029 267.028 L 154.029 282.702 L 140.027 290.526 L 126.024 282.702 L 126.024 267.028 L 140.027 259.203 Z " fill="rgb(240,66,238)"/><path d=" M 168.032 259.203 L 182.035 267.028 L 182.035 282.702 L 168.032 290.526 L 154.029 282.702 L 154.029 267.028 L 168.032 259.203 Z " fill="rgb(246,85,244)"/><path d=" M 196.037 259.203 L 210.04 267.028 L 210.04 282.702 L 196.037 290.526 L 182.035 282.702 L 182.035 267.028 L 196.037 259.203 Z " fill="rgb(238,78,233)"/><path d=" M 224.043 259.203 L 238.045 267.028 L 238.045 282.702 L 224.043 290.526 L 210.04 282.702 L 210.04 267.028 L 224.043 259.203 Z " fill="rgb(236,70,233)"/><path d=" M 252.048 259.203 L 266.051 267.028 L 266.051 282.702 L 252.048 290.526 L 238.045 282.702 L 238.045 267.028 L 252.048 259.203 Z " fill="rgb(240,78,239)"/><path d=" M 280.053 259.203 L 294.056 267.028 L 294.056 282.702 L 280.053 290.526 L 266.051 282.702 L 266.051 267.028 L 280.053 259.203 Z " fill="rgb(240,68,239)"/><path d=" M 308.059 259.203 L 322.061 267.028 L 322.061 282.702 L 308.059 290.526 L 294.056 282.702 L 294.056 267.028 L 308.059 259.203 Z " fill="rgb(245,64,244)"/><path d=" M 336.063 259.203 L 350.067 267.028 L 350.067 282.702 L 336.063 290.526 L 322.061 282.702 L 322.061 267.028 L 336.063 259.203 Z " fill="rgb(248,67,247)"/><path d=" M 364.069 259.203 L 378.072 267.028 L 378.072 282.702 L 364.069 290.526 L 350.067 282.702 L 350.067 267.028 L 364.069 259.203 Z " fill="rgb(249,84,248)"/><path d=" M 392.074 259.203 L 406.077 267.028 L 406.077 282.702 L 392.074 290.526 L 378.072 282.702 L 378.072 267.028 L 392.074 259.203 Z " fill="rgb(246,85,243)"/><path d=" M 420.081 259.203 L 434.083 267.028 L 434.083 282.702 L 420.081 290.526 L 406.077 282.702 L 406.077 267.028 L 420.081 259.203 Z " fill="rgb(234,66,227)"/><path d=" M 448.086 259.203 L 462.088 267.028 L 462.088 282.702 L 448.086 290.526 L 434.083 282.702 L 434.083 267.028 L 448.086 259.203 Z " fill="rgb(236,68,233)"/><path d=" M 476.091 259.203 L 490.093 267.028 L 490.093 282.702 L 476.091 290.526 L 462.088 282.702 L 462.088 267.028 L 476.091 259.203 Z " fill="rgb(247,74,248)"/><path d=" M 504.097 259.203 L 518.099 267.028 L 518.099 282.702 L 504.097 290.526 L 490.093 282.702 L 490.093 267.028 L 504.097 259.203 Z " fill="rgb(238,60,235)"/><path d=" M 532.102 259.203 L 546.104 267.028 L 546.104 282.702 L 532.102 290.526 L 518.099 282.702 L 518.099 267.028 L 532.102 259.203 Z " fill="rgb(230,54,221)"/><path d=" M 560.106 259.203 L 574.11 267.028 L 574.11 282.702 L 560.106 290.526 L 546.104 282.702 L 546.104 267.028 L 560.106 259.203 Z " fill="rgb(231,57,219)"/><clipPath id="_clipPath_q3kylaIFAO1SixDHqySHbyHKfINC2tc0"><path d=" M 0.06 596 L 595.275 596 L 595.275 0.725 L 0.06 0.725 L 0.06 596 Z " fill="rgb(255,255,255)"/></clipPath><g clip-path="url(#_clipPath_q3kylaIFAO1SixDHqySHbyHKfINC2tc0)"><path d=" M 595.275 263.207 L 588.112 259.203 L 574.11 267.028 L 574.11 282.702 L 588.112 290.526 L 595.275 286.523 L 595.275 263.207 Z " fill="rgb(236,71,227)"/><path d=" M 14.002 282.702 L 28.005 290.526 L 28.005 306.2 L 14.002 314.024 L 0 306.2 L 0 290.526 L 14.002 282.702 Z " fill="rgb(235,60,230)"/></g><path d=" M 42.008 282.702 L 56.01 290.526 L 56.01 306.2 L 42.008 314.024 L 28.005 306.2 L 28.005 290.526 L 42.008 282.702 Z " fill="rgb(235,64,233)"/><path d=" M 70.014 282.702 L 84.016 290.526 L 84.016 306.2 L 70.014 314.024 L 56.01 306.2 L 56.01 290.526 L 70.014 282.702 Z " fill="rgb(235,61,231)"/><path d=" M 98.019 282.702 L 112.021 290.526 L 112.021 306.2 L 98.019 314.024 L 84.016 306.2 L 84.016 290.526 L 98.019 282.702 Z " fill="rgb(243,72,240)"/><path d=" M 126.024 282.702 L 140.027 290.526 L 140.027 306.2 L 126.024 314.024 L 112.021 306.2 L 112.021 290.526 L 126.024 282.702 Z " fill="rgb(238,70,236)"/><path d=" M 154.029 282.702 L 168.032 290.526 L 168.032 306.2 L 154.029 314.024 L 140.027 306.2 L 140.027 290.526 L 154.029 282.702 Z " fill="rgb(238,74,235)"/><path d=" M 182.035 282.702 L 196.037 290.526 L 196.037 306.2 L 182.035 314.024 L 168.032 306.2 L 168.032 290.526 L 182.035 282.702 Z " fill="rgb(246,81,243)"/><path d=" M 210.04 282.702 L 224.043 290.526 L 224.043 306.2 L 210.04 314.024 L 196.037 306.2 L 196.037 290.526 L 210.04 282.702 Z " fill="rgb(240,82,236)"/><path d=" M 238.045 282.702 L 252.048 290.526 L 252.048 306.2 L 238.045 314.024 L 224.043 306.2 L 224.043 290.526 L 238.045 282.702 Z " fill="rgb(239,83,236)"/><path d=" M 266.051 282.702 L 280.053 290.526 L 280.053 306.2 L 266.051 314.024 L 252.048 306.2 L 252.048 290.526 L 266.051 282.702 Z " fill="rgb(241,79,240)"/><path d=" M 294.056 282.702 L 308.059 290.526 L 308.059 306.2 L 294.056 314.024 L 280.053 306.2 L 280.053 290.526 L 294.056 282.702 Z " fill="rgb(245,72,244)"/><path d=" M 322.061 282.702 L 336.063 290.526 L 336.063 306.2 L 322.061 314.024 L 308.059 306.2 L 308.059 290.526 L 322.061 282.702 Z " fill="rgb(249,70,249)"/><path d=" M 350.067 282.702 L 364.069 290.526 L 364.069 306.2 L 350.067 314.024 L 336.063 306.2 L 336.063 290.526 L 350.067 282.702 Z " fill="rgb(248,86,248)"/><path d=" M 378.072 282.702 L 392.074 290.526 L 392.074 306.2 L 378.072 314.024 L 364.069 306.2 L 364.069 290.526 L 378.072 282.702 Z " fill="rgb(249,97,248)"/><path d=" M 406.077 282.702 L 420.081 290.526 L 420.081 306.2 L 406.077 314.024 L 392.074 306.2 L 392.074 290.526 L 406.077 282.702 Z " fill="rgb(240,93,236)"/><path d=" M 434.083 282.702 L 448.086 290.526 L 448.086 306.2 L 434.083 314.024 L 420.081 306.2 L 420.081 290.526 L 434.083 282.702 Z " fill="rgb(238,81,236)"/><path d=" M 462.088 282.702 L 476.091 290.526 L 476.091 306.2 L 462.088 314.024 L 448.086 306.2 L 448.086 290.526 L 462.088 282.702 Z " fill="rgb(247,79,248)"/><path d=" M 490.093 282.702 L 504.097 290.526 L 504.097 306.2 L 490.093 314.024 L 476.091 306.2 L 476.091 290.526 L 490.093 282.702 Z " fill="rgb(247,83,245)"/><path d=" M 518.099 282.702 L 532.102 290.526 L 532.102 306.2 L 518.099 314.024 L 504.097 306.2 L 504.097 290.526 L 518.099 282.702 Z " fill="rgb(228,66,219)"/><path d=" M 546.104 282.702 L 560.106 290.526 L 560.106 306.2 L 546.104 314.024 L 532.102 306.2 L 532.102 290.526 L 546.104 282.702 Z " fill="rgb(222,51,210)"/><path d=" M 574.11 282.702 L 588.112 290.526 L 588.112 306.2 L 574.11 314.024 L 560.106 306.2 L 560.106 290.526 L 574.11 282.702 Z " fill="rgb(230,56,221)"/><clipPath id="_clipPath_DIosHMUTAjwAP0eiHnZDo2gWUFBeyriU"><path d=" M 0.06 596 L 595.275 596 L 595.275 0.725 L 0.06 0.725 L 0.06 596 Z " fill="rgb(255,255,255)"/></clipPath><g clip-path="url(#_clipPath_DIosHMUTAjwAP0eiHnZDo2gWUFBeyriU)"><path d=" M 595.275 286.523 L 588.112 290.526 L 588.112 306.2 L 595.275 310.202 L 595.275 286.523 Z " fill="rgb(239,59,235)"/><path d=" M 0 306.2 L 14.002 314.024 L 14.002 329.698 L 0 337.522 L 0 306.2 Z " fill="rgb(235,56,232)"/></g><path d=" M 28.005 306.2 L 42.008 314.024 L 42.008 329.698 L 28.005 337.522 L 14.002 329.698 L 14.002 314.024 L 28.005 306.2 Z " fill="rgb(240,69,241)"/><path d=" M 56.01 306.2 L 70.014 314.024 L 70.014 329.698 L 56.01 337.522 L 42.008 329.698 L 42.008 314.024 L 56.01 306.2 Z " fill="rgb(241,73,243)"/><path d=" M 84.016 306.2 L 98.019 314.024 L 98.019 329.698 L 84.016 337.522 L 70.014 329.698 L 70.014 314.024 L 84.016 306.2 Z " fill="rgb(237,82,235)"/><path d=" M 112.021 306.2 L 126.024 314.024 L 126.024 329.698 L 112.021 337.522 L 98.019 329.698 L 98.019 314.024 L 112.021 306.2 Z " fill="rgb(240,83,237)"/><path d=" M 140.027 306.2 L 154.029 314.024 L 154.029 329.698 L 140.027 337.522 L 126.024 329.698 L 126.024 314.024 L 140.027 306.2 Z " fill="rgb(241,75,240)"/><path d=" M 168.032 306.2 L 182.035 314.024 L 182.035 329.698 L 168.032 337.522 L 154.029 329.698 L 154.029 314.024 L 168.032 306.2 Z " fill="rgb(243,83,239)"/><path d=" M 196.037 306.2 L 210.04 314.024 L 210.04 329.698 L 196.037 337.522 L 182.035 329.698 L 182.035 314.024 L 196.037 306.2 Z " fill="rgb(240,79,235)"/><path d=" M 224.043 306.2 L 238.045 314.024 L 238.045 329.698 L 224.043 337.522 L 210.04 329.698 L 210.04 314.024 L 224.043 306.2 Z " fill="rgb(241,84,236)"/><path d=" M 252.048 306.2 L 266.051 314.024 L 266.051 329.698 L 252.048 337.522 L 238.045 329.698 L 238.045 314.024 L 252.048 306.2 Z " fill="rgb(245,93,243)"/><path d=" M 280.053 306.2 L 294.056 314.024 L 294.056 329.698 L 280.053 337.522 L 266.051 329.698 L 266.051 314.024 L 280.053 306.2 Z " fill="rgb(245,81,243)"/><path d=" M 308.059 306.2 L 322.061 314.024 L 322.061 329.698 L 308.059 337.522 L 294.056 329.698 L 294.056 314.024 L 308.059 306.2 Z " fill="rgb(249,75,249)"/><path d=" M 336.063 306.2 L 350.067 314.024 L 350.067 329.698 L 336.063 337.522 L 322.061 329.698 L 322.061 314.024 L 336.063 306.2 Z " fill="rgb(249,96,248)"/><path d=" M 364.069 306.2 L 378.072 314.024 L 378.072 329.698 L 364.069 337.522 L 350.067 329.698 L 350.067 314.024 L 364.069 306.2 Z " fill="rgb(249,108,249)"/><path d=" M 392.074 306.2 L 406.077 314.024 L 406.077 329.698 L 392.074 337.522 L 378.072 329.698 L 378.072 314.024 L 392.074 306.2 Z " fill="rgb(248,119,248)"/><path d=" M 420.081 306.2 L 434.083 314.024 L 434.083 329.698 L 420.081 337.522 L 406.077 329.698 L 406.077 314.024 L 420.081 306.2 Z " fill="rgb(245,112,243)"/><path d=" M 448.086 306.2 L 462.088 314.024 L 462.088 329.698 L 448.086 337.522 L 434.083 329.698 L 434.083 314.024 L 448.086 306.2 Z " fill="rgb(244,86,244)"/><path d=" M 476.091 306.2 L 490.093 314.024 L 490.093 329.698 L 476.091 337.522 L 462.088 329.698 L 462.088 314.024 L 476.091 306.2 Z " fill="rgb(249,87,248)"/><path d=" M 504.097 306.2 L 518.099 314.024 L 518.099 329.698 L 504.097 337.522 L 490.093 329.698 L 490.093 314.024 L 504.097 306.2 Z " fill="rgb(237,79,232)"/><path d=" M 532.102 306.2 L 546.104 314.024 L 546.104 329.698 L 532.102 337.522 L 518.099 329.698 L 518.099 314.024 L 532.102 306.2 Z " fill="rgb(223,60,213)"/><path d=" M 560.106 306.2 L 574.11 314.024 L 574.11 329.698 L 560.106 337.522 L 546.104 329.698 L 546.104 314.024 L 560.106 306.2 Z " fill="rgb(223,51,211)"/><clipPath id="_clipPath_WpPeXg43K5oCEY8jyKo6NeUsI4bDmsMy"><path d=" M 0.06 596 L 595.275 596 L 595.275 0.725 L 0.06 0.725 L 0.06 596 Z " fill="rgb(255,255,255)"/></clipPath><g clip-path="url(#_clipPath_WpPeXg43K5oCEY8jyKo6NeUsI4bDmsMy)"><path d=" M 595.275 310.202 L 588.112 306.2 L 574.11 314.024 L 574.11 329.698 L 588.112 337.522 L 595.275 333.519 L 595.275 310.202 Z " fill="rgb(234,57,227)"/><path d=" M 14.002 329.698 L 28.005 337.522 L 28.005 353.196 L 14.002 361.02 L 0 353.196 L 0 337.522 L 14.002 329.698 Z " fill="rgb(235,58,235)"/></g><path d=" M 42.008 329.698 L 56.01 337.522 L 56.01 353.196 L 42.008 361.02 L 28.005 353.196 L 28.005 337.522 L 42.008 329.698 Z " fill="rgb(241,71,245)"/><path d=" M 70.014 329.698 L 84.016 337.522 L 84.016 353.196 L 70.014 361.02 L 56.01 353.196 L 56.01 337.522 L 70.014 329.698 Z " fill="rgb(246,82,245)"/><path d=" M 98.019 329.698 L 112.021 337.522 L 112.021 353.196 L 98.019 361.02 L 84.016 353.196 L 84.016 337.522 L 98.019 329.698 Z " fill="rgb(248,102,247)"/><path d=" M 126.024 329.698 L 140.027 337.522 L 140.027 353.196 L 126.024 361.02 L 112.021 353.196 L 112.021 337.522 L 126.024 329.698 Z " fill="rgb(245,92,245)"/><path d=" M 154.029 329.698 L 168.032 337.522 L 168.032 353.196 L 154.029 361.02 L 140.027 353.196 L 140.027 337.522 L 154.029 329.698 Z " fill="rgb(244,70,244)"/><path d=" M 182.035 329.698 L 196.037 337.522 L 196.037 353.196 L 182.035 361.02 L 168.032 353.196 L 168.032 337.522 L 182.035 329.698 Z " fill="rgb(246,79,244)"/><path d=" M 210.04 329.698 L 224.043 337.522 L 224.043 353.196 L 210.04 361.02 L 196.037 353.196 L 196.037 337.522 L 210.04 329.698 Z " fill="rgb(246,87,243)"/><path d=" M 238.045 329.698 L 252.048 337.522 L 252.048 353.196 L 238.045 361.02 L 224.043 353.196 L 224.043 337.522 L 238.045 329.698 Z " fill="rgb(248,91,248)"/><path d=" M 266.051 329.698 L 280.053 337.522 L 280.053 353.196 L 266.051 361.02 L 252.048 353.196 L 252.048 337.522 L 266.051 329.698 Z " fill="rgb(247,83,244)"/><path d=" M 294.056 329.698 L 308.059 337.522 L 308.059 353.196 L 294.056 361.02 L 280.053 353.196 L 280.053 337.522 L 294.056 329.698 Z " fill="rgb(248,72,248)"/><path d=" M 322.061 329.698 L 336.063 337.522 L 336.063 353.196 L 322.061 361.02 L 308.059 353.196 L 308.059 337.522 L 322.061 329.698 Z " fill="rgb(250,90,250)"/><path d=" M 350.067 329.698 L 364.069 337.522 L 364.069 353.196 L 350.067 361.02 L 336.063 353.196 L 336.063 337.522 L 350.067 329.698 Z " fill="rgb(250,129,249)"/><path d=" M 378.072 329.698 L 392.074 337.522 L 392.074 353.196 L 378.072 361.02 L 364.069 353.196 L 364.069 337.522 L 378.072 329.698 Z " fill="rgb(250,128,250)"/><path d=" M 406.077 329.698 L 420.081 337.522 L 420.081 353.196 L 406.077 361.02 L 392.074 353.196 L 392.074 337.522 L 406.077 329.698 Z " fill="rgb(249,130,248)"/><path d=" M 434.083 329.698 L 448.086 337.522 L 448.086 353.196 L 434.083 361.02 L 420.081 353.196 L 420.081 337.522 L 434.083 329.698 Z " fill="rgb(248,112,247)"/><path d=" M 462.088 329.698 L 476.091 337.522 L 476.091 353.196 L 462.088 361.02 L 448.086 353.196 L 448.086 337.522 L 462.088 329.698 Z " fill="rgb(247,78,248)"/><path d=" M 490.093 329.698 L 504.097 337.522 L 504.097 353.196 L 490.093 361.02 L 476.091 353.196 L 476.091 337.522 L 490.093 329.698 Z " fill="rgb(248,93,248)"/><path d=" M 518.099 329.698 L 532.102 337.522 L 532.102 353.196 L 518.099 361.02 L 504.097 353.196 L 504.097 337.522 L 518.099 329.698 Z " fill="rgb(238,83,235)"/><path d=" M 546.104 329.698 L 560.106 337.522 L 560.106 353.196 L 546.104 361.02 L 532.102 353.196 L 532.102 337.522 L 546.104 329.698 Z " fill="rgb(231,57,227)"/><path d=" M 574.11 329.698 L 588.112 337.522 L 588.112 353.196 L 574.11 361.02 L 560.106 353.196 L 560.106 337.522 L 574.11 329.698 Z " fill="rgb(237,55,234)"/><clipPath id="_clipPath_lC0HVRrmF5kQ7dcDqQjXsRfm6o6yRDJ8"><path d=" M 0.06 596 L 595.275 596 L 595.275 0.725 L 0.06 0.725 L 0.06 596 Z " fill="rgb(255,255,255)"/></clipPath><g clip-path="url(#_clipPath_lC0HVRrmF5kQ7dcDqQjXsRfm6o6yRDJ8)"><path d=" M 595.275 333.519 L 588.112 337.522 L 588.112 353.196 L 595.275 357.199 L 595.275 333.519 Z " fill="rgb(247,61,246)"/><path d=" M 0 353.196 L 14.002 361.02 L 14.002 376.693 L 0 384.518 L 0 353.196 Z " fill="rgb(232,54,228)"/></g><path d=" M 28.005 353.196 L 42.008 361.02 L 42.008 376.693 L 28.005 384.518 L 14.002 376.693 L 14.002 361.02 L 28.005 353.196 Z " fill="rgb(239,65,239)"/><path d=" M 56.01 353.196 L 70.014 361.02 L 70.014 376.693 L 56.01 384.518 L 42.008 376.693 L 42.008 361.02 L 56.01 353.196 Z " fill="rgb(248,73,248)"/><path d=" M 84.016 353.196 L 98.019 361.02 L 98.019 376.693 L 84.016 384.518 L 70.014 376.693 L 70.014 361.02 L 84.016 353.196 Z " fill="rgb(249,92,249)"/><path d=" M 112.021 353.196 L 126.024 361.02 L 126.024 376.693 L 112.021 384.518 L 98.019 376.693 L 98.019 361.02 L 112.021 353.196 Z " fill="rgb(249,116,248)"/><path d=" M 140.027 353.196 L 154.029 361.02 L 154.029 376.693 L 140.027 384.518 L 126.024 376.693 L 126.024 361.02 L 140.027 353.196 Z " fill="rgb(248,94,248)"/><path d=" M 168.032 353.196 L 182.035 361.02 L 182.035 376.693 L 168.032 384.518 L 154.029 376.693 L 154.029 361.02 L 168.032 353.196 Z " fill="rgb(248,72,248)"/><path d=" M 196.037 353.196 L 210.04 361.02 L 210.04 376.693 L 196.037 384.518 L 182.035 376.693 L 182.035 361.02 L 196.037 353.196 Z " fill="rgb(248,81,246)"/><path d=" M 224.043 353.196 L 238.045 361.02 L 238.045 376.693 L 224.043 384.518 L 210.04 376.693 L 210.04 361.02 L 224.043 353.196 Z " fill="rgb(248,83,247)"/><path d=" M 252.048 353.196 L 266.051 361.02 L 266.051 376.693 L 252.048 384.518 L 238.045 376.693 L 238.045 361.02 L 252.048 353.196 Z " fill="rgb(251,86,251)"/><path d=" M 280.053 353.196 L 294.056 361.02 L 294.056 376.693 L 280.053 384.518 L 266.051 376.693 L 266.051 361.02 L 280.053 353.196 Z " fill="rgb(251,75,251)"/><path d=" M 308.059 353.196 L 322.061 361.02 L 322.061 376.693 L 308.059 384.518 L 294.056 376.693 L 294.056 361.02 L 308.059 353.196 Z " fill="rgb(251,70,251)"/><path d=" M 336.063 353.196 L 350.067 361.02 L 350.067 376.693 L 336.063 384.518 L 322.061 376.693 L 322.061 361.02 L 336.063 353.196 Z " fill="rgb(251,118,250)"/><path d=" M 364.069 353.196 L 378.072 361.02 L 378.072 376.693 L 364.069 384.518 L 350.067 376.693 L 350.067 361.02 L 364.069 353.196 Z " fill="rgb(251,134,248)"/><path d=" M 392.074 353.196 L 406.077 361.02 L 406.077 376.693 L 392.074 384.518 L 378.072 376.693 L 378.072 361.02 L 392.074 353.196 Z " fill="rgb(251,126,249)"/><path d=" M 420.081 353.196 L 434.083 361.02 L 434.083 376.693 L 420.081 384.518 L 406.077 376.693 L 406.077 361.02 L 420.081 353.196 Z " fill="rgb(251,126,249)"/><path d=" M 448.086 353.196 L 462.088 361.02 L 462.088 376.693 L 448.086 384.518 L 434.083 376.693 L 434.083 361.02 L 448.086 353.196 Z " fill="rgb(248,91,249)"/><path d=" M 476.091 353.196 L 490.093 361.02 L 490.093 376.693 L 476.091 384.518 L 462.088 376.693 L 462.088 361.02 L 476.091 353.196 Z " fill="rgb(247,71,246)"/><path d=" M 504.097 353.196 L 518.099 361.02 L 518.099 376.693 L 504.097 384.518 L 490.093 376.693 L 490.093 361.02 L 504.097 353.196 Z " fill="rgb(248,88,245)"/><path d=" M 532.102 353.196 L 546.104 361.02 L 546.104 376.693 L 532.102 384.518 L 518.099 376.693 L 518.099 361.02 L 532.102 353.196 Z " fill="rgb(248,82,248)"/><path d=" M 560.106 353.196 L 574.11 361.02 L 574.11 376.693 L 560.106 384.518 L 546.104 376.693 L 546.104 361.02 L 560.106 353.196 Z " fill="rgb(245,59,245)"/><clipPath id="_clipPath_9afEQ6J0B3ofTOFicpx4tbp53RkJff4J"><path d=" M 0.06 596 L 595.275 596 L 595.275 0.725 L 0.06 0.725 L 0.06 596 Z " fill="rgb(255,255,255)"/></clipPath><g clip-path="url(#_clipPath_9afEQ6J0B3ofTOFicpx4tbp53RkJff4J)"><path d=" M 595.275 357.199 L 588.112 353.196 L 574.11 361.02 L 574.11 376.693 L 588.112 384.518 L 595.275 380.515 L 595.275 357.199 Z " fill="rgb(248,64,247)"/><path d=" M 14.002 376.693 L 28.005 384.518 L 28.005 400.192 L 14.002 408.017 L 0 400.192 L 0 384.518 L 14.002 376.693 Z " fill="rgb(223,52,215)"/></g><path d=" M 42.008 376.693 L 56.01 384.518 L 56.01 400.192 L 42.008 408.017 L 28.005 400.192 L 28.005 384.518 L 42.008 376.693 Z " fill="rgb(245,60,246)"/><path d=" M 70.014 376.693 L 84.016 384.518 L 84.016 400.192 L 70.014 408.017 L 56.01 400.192 L 56.01 384.518 L 70.014 376.693 Z " fill="rgb(250,72,249)"/><path d=" M 98.019 376.693 L 112.021 384.518 L 112.021 400.192 L 98.019 408.017 L 84.016 400.192 L 84.016 384.518 L 98.019 376.693 Z " fill="rgb(250,108,248)"/><path d=" M 126.024 376.693 L 140.027 384.518 L 140.027 400.192 L 126.024 408.017 L 112.021 400.192 L 112.021 384.518 L 126.024 376.693 Z " fill="rgb(250,110,248)"/><path d=" M 154.029 376.693 L 168.032 384.518 L 168.032 400.192 L 154.029 408.017 L 140.027 400.192 L 140.027 384.518 L 154.029 376.693 Z " fill="rgb(250,72,250)"/><path d=" M 182.035 376.693 L 196.037 384.518 L 196.037 400.192 L 182.035 408.017 L 168.032 400.192 L 168.032 384.518 L 182.035 376.693 Z " fill="rgb(249,70,248)"/><path d=" M 210.04 376.693 L 224.043 384.518 L 224.043 400.192 L 210.04 408.017 L 196.037 400.192 L 196.037 384.518 L 210.04 376.693 Z " fill="rgb(249,82,248)"/><path d=" M 238.045 376.693 L 252.048 384.518 L 252.048 400.192 L 238.045 408.017 L 224.043 400.192 L 224.043 384.518 L 238.045 376.693 Z " fill="rgb(250,77,251)"/><path d=" M 266.051 376.693 L 280.053 384.518 L 280.053 400.192 L 266.051 408.017 L 252.048 400.192 L 252.048 384.518 L 266.051 376.693 Z " fill="rgb(252,69,251)"/><path d=" M 294.056 376.693 L 308.059 384.518 L 308.059 400.192 L 294.056 408.017 L 280.053 400.192 L 280.053 384.518 L 294.056 376.693 Z " fill="rgb(251,67,252)"/><path d=" M 322.061 376.693 L 336.063 384.518 L 336.063 400.192 L 322.061 408.017 L 308.059 400.192 L 308.059 384.518 L 322.061 376.693 Z " fill="rgb(250,84,251)"/><path d=" M 350.067 376.693 L 364.069 384.518 L 364.069 400.192 L 350.067 408.017 L 336.063 400.192 L 336.063 384.518 L 350.067 376.693 Z " fill="rgb(251,117,248)"/><path d=" M 378.072 376.693 L 392.074 384.518 L 392.074 400.192 L 378.072 408.017 L 364.069 400.192 L 364.069 384.518 L 378.072 376.693 Z " fill="rgb(251,122,248)"/><path d=" M 406.077 376.693 L 420.081 384.518 L 420.081 400.192 L 406.077 408.017 L 392.074 400.192 L 392.074 384.518 L 406.077 376.693 Z " fill="rgb(251,112,248)"/><path d=" M 434.083 376.693 L 448.086 384.518 L 448.086 400.192 L 434.083 408.017 L 420.081 400.192 L 420.081 384.518 L 434.083 376.693 Z " fill="rgb(251,90,248)"/><path d=" M 462.088 376.693 L 476.091 384.518 L 476.091 400.192 L 462.088 408.017 L 448.086 400.192 L 448.086 384.518 L 462.088 376.693 Z " fill="rgb(248,65,248)"/><path d=" M 490.093 376.693 L 504.097 384.518 L 504.097 400.192 L 490.093 408.017 L 476.091 400.192 L 476.091 384.518 L 490.093 376.693 Z " fill="rgb(243,65,238)"/><path d=" M 518.099 376.693 L 532.102 384.518 L 532.102 400.192 L 518.099 408.017 L 504.097 400.192 L 504.097 384.518 L 518.099 376.693 Z " fill="rgb(245,80,237)"/><path d=" M 546.104 376.693 L 560.106 384.518 L 560.106 400.192 L 546.104 408.017 L 532.102 400.192 L 532.102 384.518 L 546.104 376.693 Z " fill="rgb(250,73,250)"/><path d=" M 574.11 376.693 L 588.112 384.518 L 588.112 400.192 L 574.11 408.017 L 560.106 400.192 L 560.106 384.518 L 574.11 376.693 Z " fill="rgb(249,66,250)"/><clipPath id="_clipPath_9sBj9LtgNBd57CKWaZfSU9R0YpDOmCXr"><path d=" M 0.06 596 L 595.275 596 L 595.275 0.725 L 0.06 0.725 L 0.06 596 Z " fill="rgb(255,255,255)"/></clipPath><g clip-path="url(#_clipPath_9sBj9LtgNBd57CKWaZfSU9R0YpDOmCXr)"><path d=" M 595.275 380.515 L 588.112 384.518 L 588.112 400.192 L 595.275 404.195 L 595.275 380.515 Z " fill="rgb(251,72,250)"/><path d=" M 0 400.192 L 14.002 408.017 L 14.002 423.69 L 0 431.515 L 0 400.192 Z " fill="rgb(226,57,220)"/></g><path d=" M 28.005 400.192 L 42.008 408.017 L 42.008 423.69 L 28.005 431.515 L 14.002 423.69 L 14.002 408.017 L 28.005 400.192 Z " fill="rgb(227,52,221)"/><path d=" M 56.01 400.192 L 70.014 408.017 L 70.014 423.69 L 56.01 431.515 L 42.008 423.69 L 42.008 408.017 L 56.01 400.192 Z " fill="rgb(245,57,246)"/><path d=" M 84.016 400.192 L 98.019 408.017 L 98.019 423.69 L 84.016 431.515 L 70.014 423.69 L 70.014 408.017 L 84.016 400.192 Z " fill="rgb(249,69,249)"/><path d=" M 112.021 400.192 L 126.024 408.017 L 126.024 423.69 L 112.021 431.515 L 98.019 423.69 L 98.019 408.017 L 112.021 400.192 Z " fill="rgb(249,100,246)"/><path d=" M 140.027 400.192 L 154.029 408.017 L 154.029 423.69 L 140.027 431.515 L 126.024 423.69 L 126.024 408.017 L 140.027 400.192 Z " fill="rgb(248,93,243)"/><path d=" M 168.032 400.192 L 182.035 408.017 L 182.035 423.69 L 168.032 431.515 L 154.029 423.69 L 154.029 408.017 L 168.032 400.192 Z " fill="rgb(248,59,244)"/><path d=" M 196.037 400.192 L 210.04 408.017 L 210.04 423.69 L 196.037 431.515 L 182.035 423.69 L 182.035 408.017 L 196.037 400.192 Z " fill="rgb(251,70,250)"/><path d=" M 224.043 400.192 L 238.045 408.017 L 238.045 423.69 L 224.043 431.515 L 210.04 423.69 L 210.04 408.017 L 224.043 400.192 Z " fill="rgb(251,73,251)"/><path d=" M 252.048 400.192 L 266.051 408.017 L 266.051 423.69 L 252.048 431.515 L 238.045 423.69 L 238.045 408.017 L 252.048 400.192 Z " fill="rgb(252,66,251)"/><path d=" M 280.053 400.192 L 294.056 408.017 L 294.056 423.69 L 280.053 431.515 L 266.051 423.69 L 266.051 408.017 L 280.053 400.192 Z " fill="rgb(251,58,252)"/><path d=" M 308.059 400.192 L 322.061 408.017 L 322.061 423.69 L 308.059 431.515 L 294.056 423.69 L 294.056 408.017 L 308.059 400.192 Z " fill="rgb(248,72,251)"/><path d=" M 336.063 400.192 L 350.067 408.017 L 350.067 423.69 L 336.063 431.515 L 322.061 423.69 L 322.061 408.017 L 336.063 400.192 Z " fill="rgb(251,92,251)"/><path d=" M 364.069 400.192 L 378.072 408.017 L 378.072 423.69 L 364.069 431.515 L 350.067 423.69 L 350.067 408.017 L 364.069 400.192 Z " fill="rgb(251,93,248)"/><path d=" M 392.074 400.192 L 406.077 408.017 L 406.077 423.69 L 392.074 431.515 L 378.072 423.69 L 378.072 408.017 L 392.074 400.192 Z " fill="rgb(250,91,247)"/><path d=" M 420.081 400.192 L 434.083 408.017 L 434.083 423.69 L 420.081 431.515 L 406.077 423.69 L 406.077 408.017 L 420.081 400.192 Z " fill="rgb(251,85,248)"/><path d=" M 448.086 400.192 L 462.088 408.017 L 462.088 423.69 L 448.086 431.515 L 434.083 423.69 L 434.083 408.017 L 448.086 400.192 Z " fill="rgb(251,71,248)"/><path d=" M 476.091 400.192 L 490.093 408.017 L 490.093 423.69 L 476.091 431.515 L 462.088 423.69 L 462.088 408.017 L 476.091 400.192 Z " fill="rgb(234,57,223)"/><path d=" M 504.097 400.192 L 518.099 408.017 L 518.099 423.69 L 504.097 431.515 L 490.093 423.69 L 490.093 408.017 L 504.097 400.192 Z " fill="rgb(235,70,223)"/><path d=" M 532.102 400.192 L 546.104 408.017 L 546.104 423.69 L 532.102 431.515 L 518.099 423.69 L 518.099 408.017 L 532.102 400.192 Z " fill="rgb(251,78,247)"/><path d=" M 560.106 400.192 L 574.11 408.017 L 574.11 423.69 L 560.106 431.515 L 546.104 423.69 L 546.104 408.017 L 560.106 400.192 Z " fill="rgb(251,68,249)"/><clipPath id="_clipPath_qimjDFuQnJPvAs4MkUZI5BfceHTu5o1i"><path d=" M 0.06 596 L 595.275 596 L 595.275 0.725 L 0.06 0.725 L 0.06 596 Z " fill="rgb(255,255,255)"/></clipPath><g clip-path="url(#_clipPath_qimjDFuQnJPvAs4MkUZI5BfceHTu5o1i)"><path d=" M 595.275 404.195 L 588.112 400.192 L 574.11 408.017 L 574.11 423.69 L 588.112 431.515 L 595.275 427.512 L 595.275 404.195 Z " fill="rgb(251,68,250)"/><path d=" M 14.002 423.69 L 28.005 431.515 L 28.005 447.188 L 14.002 455.013 L 0 447.188 L 0 431.515 L 14.002 423.69 Z " fill="rgb(230,59,226)"/></g><path d=" M 42.008 423.69 L 56.01 431.515 L 56.01 447.188 L 42.008 455.013 L 28.005 447.188 L 28.005 431.515 L 42.008 423.69 Z " fill="rgb(237,55,236)"/><path d=" M 70.014 423.69 L 84.016 431.515 L 84.016 447.188 L 70.014 455.013 L 56.01 447.188 L 56.01 431.515 L 70.014 423.69 Z " fill="rgb(243,57,243)"/><path d=" M 98.019 423.69 L 112.021 431.515 L 112.021 447.188 L 98.019 455.013 L 84.016 447.188 L 84.016 431.515 L 98.019 423.69 Z " fill="rgb(246,73,244)"/><path d=" M 126.024 423.69 L 140.027 431.515 L 140.027 447.188 L 126.024 455.013 L 112.021 447.188 L 112.021 431.515 L 126.024 423.69 Z " fill="rgb(251,83,249)"/><path d=" M 154.029 423.69 L 168.032 431.515 L 168.032 447.188 L 154.029 455.013 L 140.027 447.188 L 140.027 431.515 L 154.029 423.69 Z " fill="rgb(245,68,238)"/><path d=" M 182.035 423.69 L 196.037 431.515 L 196.037 447.188 L 182.035 455.013 L 168.032 447.188 L 168.032 431.515 L 182.035 423.69 Z " fill="rgb(243,56,235)"/><path d=" M 210.04 423.69 L 224.043 431.515 L 224.043 447.188 L 210.04 455.013 L 196.037 447.188 L 196.037 431.515 L 210.04 423.69 Z " fill="rgb(249,65,247)"/><path d=" M 238.045 423.69 L 252.048 431.515 L 252.048 447.188 L 238.045 455.013 L 224.043 447.188 L 224.043 431.515 L 238.045 423.69 Z " fill="rgb(250,66,248)"/><path d=" M 266.051 423.69 L 280.053 431.515 L 280.053 447.188 L 266.051 455.013 L 252.048 447.188 L 252.048 431.515 L 266.051 423.69 Z " fill="rgb(250,57,250)"/><path d=" M 294.056 423.69 L 308.059 431.515 L 308.059 447.188 L 294.056 455.013 L 280.053 447.188 L 280.053 431.515 L 294.056 423.69 Z " fill="rgb(249,59,251)"/><path d=" M 322.061 423.69 L 336.063 431.515 L 336.063 447.188 L 322.061 455.013 L 308.059 447.188 L 308.059 431.515 L 322.061 423.69 Z " fill="rgb(248,80,251)"/><path d=" M 350.067 423.69 L 364.069 431.515 L 364.069 447.188 L 350.067 455.013 L 336.063 447.188 L 336.063 431.515 L 350.067 423.69 Z " fill="rgb(249,82,251)"/><path d=" M 378.072 423.69 L 392.074 431.515 L 392.074 447.188 L 378.072 455.013 L 364.069 447.188 L 364.069 431.515 L 378.072 423.69 Z " fill="rgb(248,70,246)"/><path d=" M 406.077 423.69 L 420.081 431.515 L 420.081 447.188 L 406.077 455.013 L 392.074 447.188 L 392.074 431.515 L 406.077 423.69 Z " fill="rgb(248,71,243)"/><path d=" M 434.083 423.69 L 448.086 431.515 L 448.086 447.188 L 434.083 455.013 L 420.081 447.188 L 420.081 431.515 L 434.083 423.69 Z " fill="rgb(250,64,248)"/><path d=" M 462.088 423.69 L 476.091 431.515 L 476.091 447.188 L 462.088 455.013 L 448.086 447.188 L 448.086 431.515 L 462.088 423.69 Z " fill="rgb(243,57,238)"/><path d=" M 490.093 423.69 L 504.097 431.515 L 504.097 447.188 L 490.093 455.013 L 476.091 447.188 L 476.091 431.515 L 490.093 423.69 Z " fill="rgb(226,53,211)"/><path d=" M 518.099 423.69 L 532.102 431.515 L 532.102 447.188 L 518.099 455.013 L 504.097 447.188 L 504.097 431.515 L 518.099 423.69 Z " fill="rgb(233,67,219)"/><path d=" M 546.104 423.69 L 560.106 431.515 L 560.106 447.188 L 546.104 455.013 L 532.102 447.188 L 532.102 431.515 L 546.104 423.69 Z " fill="rgb(251,72,248)"/><path d=" M 574.11 423.69 L 588.112 431.515 L 588.112 447.188 L 574.11 455.013 L 560.106 447.188 L 560.106 431.515 L 574.11 423.69 Z " fill="rgb(251,68,248)"/><clipPath id="_clipPath_9C1va6G0PYVnmqkKRWq2bKEQdmiPf0Wm"><path d=" M 0.06 596 L 595.275 596 L 595.275 0.725 L 0.06 0.725 L 0.06 596 Z " fill="rgb(255,255,255)"/></clipPath><g clip-path="url(#_clipPath_9C1va6G0PYVnmqkKRWq2bKEQdmiPf0Wm)"><path d=" M 595.275 427.512 L 588.112 431.515 L 588.112 447.188 L 595.275 451.191 L 595.275 427.512 Z " fill="rgb(251,69,248)"/><path d=" M 0 447.188 L 14.002 455.013 L 14.002 470.686 L 0 478.511 L 0 447.188 Z " fill="rgb(239,79,238)"/></g><path d=" M 28.005 447.188 L 42.008 455.013 L 42.008 470.686 L 28.005 478.511 L 14.002 470.686 L 14.002 455.013 L 28.005 447.188 Z " fill="rgb(232,60,235)"/><path d=" M 56.01 447.188 L 70.014 455.013 L 70.014 470.686 L 56.01 478.511 L 42.008 470.686 L 42.008 455.013 L 56.01 447.188 Z " fill="rgb(240,56,246)"/><path d=" M 84.016 447.188 L 98.019 455.013 L 98.019 470.686 L 84.016 478.511 L 70.014 470.686 L 70.014 455.013 L 84.016 447.188 Z " fill="rgb(241,57,239)"/><path d=" M 112.021 447.188 L 126.024 455.013 L 126.024 470.686 L 112.021 478.511 L 98.019 470.686 L 98.019 455.013 L 112.021 447.188 Z " fill="rgb(241,66,236)"/><path d=" M 140.027 447.188 L 154.029 455.013 L 154.029 470.686 L 140.027 478.511 L 126.024 470.686 L 126.024 455.013 L 140.027 447.188 Z " fill="rgb(245,66,239)"/><path d=" M 168.032 447.188 L 182.035 455.013 L 182.035 470.686 L 168.032 478.511 L 154.029 470.686 L 154.029 455.013 L 168.032 447.188 Z " fill="rgb(238,56,230)"/><path d=" M 196.037 447.188 L 210.04 455.013 L 210.04 470.686 L 196.037 478.511 L 182.035 470.686 L 182.035 455.013 L 196.037 447.188 Z " fill="rgb(239,55,234)"/><path d=" M 224.043 447.188 L 238.045 455.013 L 238.045 470.686 L 224.043 478.511 L 210.04 470.686 L 210.04 455.013 L 224.043 447.188 Z " fill="rgb(247,59,243)"/><path d=" M 252.048 447.188 L 266.051 455.013 L 266.051 470.686 L 252.048 478.511 L 238.045 470.686 L 238.045 455.013 L 252.048 447.188 Z " fill="rgb(247,60,243)"/><path d=" M 280.053 447.188 L 294.056 455.013 L 294.056 470.686 L 280.053 478.511 L 266.051 470.686 L 266.051 455.013 L 280.053 447.188 Z " fill="rgb(246,56,244)"/><path d=" M 308.059 447.188 L 322.061 455.013 L 322.061 470.686 L 308.059 478.511 L 294.056 470.686 L 294.056 455.013 L 308.059 447.188 Z " fill="rgb(245,66,249)"/><path d=" M 336.063 447.188 L 350.067 455.013 L 350.067 470.686 L 336.063 478.511 L 322.061 470.686 L 322.061 455.013 L 336.063 447.188 Z " fill="rgb(245,74,250)"/><path d=" M 364.069 447.188 L 378.072 455.013 L 378.072 470.686 L 364.069 478.511 L 350.067 470.686 L 350.067 455.013 L 364.069 447.188 Z " fill="rgb(247,66,249)"/><path d=" M 392.074 447.188 L 406.077 455.013 L 406.077 470.686 L 392.074 478.511 L 378.072 470.686 L 378.072 455.013 L 392.074 447.188 Z " fill="rgb(239,57,235)"/><path d=" M 420.081 447.188 L 434.083 455.013 L 434.083 470.686 L 420.081 478.511 L 406.077 470.686 L 406.077 455.013 L 420.081 447.188 Z " fill="rgb(239,62,233)"/><path d=" M 448.086 447.188 L 462.088 455.013 L 462.088 470.686 L 448.086 478.511 L 434.083 470.686 L 434.083 455.013 L 448.086 447.188 Z " fill="rgb(248,61,247)"/><path d=" M 476.091 447.188 L 490.093 455.013 L 490.093 470.686 L 476.091 478.511 L 462.088 470.686 L 462.088 455.013 L 476.091 447.188 Z " fill="rgb(221,51,208)"/><path d=" M 504.097 447.188 L 518.099 455.013 L 518.099 470.686 L 504.097 478.511 L 490.093 470.686 L 490.093 455.013 L 504.097 447.188 Z " fill="rgb(222,57,206)"/><path d=" M 532.102 447.188 L 546.104 455.013 L 546.104 470.686 L 532.102 478.511 L 518.099 470.686 L 518.099 455.013 L 532.102 447.188 Z " fill="rgb(246,66,240)"/><path d=" M 560.106 447.188 L 574.11 455.013 L 574.11 470.686 L 560.106 478.511 L 546.104 470.686 L 546.104 455.013 L 560.106 447.188 Z " fill="rgb(250,64,247)"/><clipPath id="_clipPath_szcxCAg4urClQEvo4tDYKk8pj91NTv46"><path d=" M 0.06 596 L 595.275 596 L 595.275 0.725 L 0.06 0.725 L 0.06 596 Z " fill="rgb(255,255,255)"/></clipPath><g clip-path="url(#_clipPath_szcxCAg4urClQEvo4tDYKk8pj91NTv46)"><path d=" M 595.275 451.191 L 588.112 447.188 L 574.11 455.013 L 574.11 470.686 L 588.112 478.511 L 595.275 474.508 L 595.275 451.191 Z " fill="rgb(249,60,247)"/><path d=" M 14.002 470.686 L 28.005 478.511 L 28.005 494.184 L 14.002 502.009 L 0 494.184 L 0 478.511 L 14.002 470.686 Z " fill="rgb(239,84,243)"/></g><path d=" M 42.008 470.686 L 56.01 478.511 L 56.01 494.184 L 42.008 502.009 L 28.005 494.184 L 28.005 478.511 L 42.008 470.686 Z " fill="rgb(236,55,240)"/><path d=" M 70.014 470.686 L 84.016 478.511 L 84.016 494.184 L 70.014 502.009 L 56.01 494.184 L 56.01 478.511 L 70.014 470.686 Z " fill="rgb(235,54,232)"/><path d=" M 98.019 470.686 L 112.021 478.511 L 112.021 494.184 L 98.019 502.009 L 84.016 494.184 L 84.016 478.511 L 98.019 470.686 Z " fill="rgb(232,53,223)"/><path d=" M 126.024 470.686 L 140.027 478.511 L 140.027 494.184 L 126.024 502.009 L 112.021 494.184 L 112.021 478.511 L 126.024 470.686 Z " fill="rgb(246,57,244)"/><path d=" M 154.029 470.686 L 168.032 478.511 L 168.032 494.184 L 154.029 502.009 L 140.027 494.184 L 140.027 478.511 L 154.029 470.686 Z " fill="rgb(245,58,241)"/><path d=" M 182.035 470.686 L 196.037 478.511 L 196.037 494.184 L 182.035 502.009 L 168.032 494.184 L 168.032 478.511 L 182.035 470.686 Z " fill="rgb(230,53,218)"/><path d=" M 210.04 470.686 L 224.043 478.511 L 224.043 494.184 L 210.04 502.009 L 196.037 494.184 L 196.037 478.511 L 210.04 470.686 Z " fill="rgb(230,54,220)"/><path d=" M 238.045 470.686 L 252.048 478.511 L 252.048 494.184 L 238.045 502.009 L 224.043 494.184 L 224.043 478.511 L 238.045 470.686 Z " fill="rgb(244,61,239)"/><path d=" M 266.051 470.686 L 280.053 478.511 L 280.053 494.184 L 266.051 502.009 L 252.048 494.184 L 252.048 478.511 L 266.051 470.686 Z " fill="rgb(243,60,239)"/><path d=" M 294.056 470.686 L 308.059 478.511 L 308.059 494.184 L 294.056 502.009 L 280.053 494.184 L 280.053 478.511 L 294.056 470.686 Z " fill="rgb(243,56,244)"/><path d=" M 322.061 470.686 L 336.063 478.511 L 336.063 494.184 L 322.061 502.009 L 308.059 494.184 L 308.059 478.511 L 322.061 470.686 Z " fill="rgb(244,70,249)"/><path d=" M 350.067 470.686 L 364.069 478.511 L 364.069 494.184 L 350.067 502.009 L 336.063 494.184 L 336.063 478.511 L 350.067 470.686 Z " fill="rgb(246,73,251)"/><path d=" M 378.072 470.686 L 392.074 478.511 L 392.074 494.184 L 378.072 502.009 L 364.069 494.184 L 364.069 478.511 L 378.072 470.686 Z " fill="rgb(235,57,231)"/><path d=" M 406.077 470.686 L 420.081 478.511 L 420.081 494.184 L 406.077 502.009 L 392.074 494.184 L 392.074 478.511 L 406.077 470.686 Z " fill="rgb(230,56,214)"/><path d=" M 434.083 470.686 L 448.086 478.511 L 448.086 494.184 L 434.083 502.009 L 420.081 494.184 L 420.081 478.511 L 434.083 470.686 Z " fill="rgb(236,61,227)"/><path d=" M 462.088 470.686 L 476.091 478.511 L 476.091 494.184 L 462.088 502.009 L 448.086 494.184 L 448.086 478.511 L 462.088 470.686 Z " fill="rgb(235,59,232)"/><path d=" M 490.093 470.686 L 504.097 478.511 L 504.097 494.184 L 490.093 502.009 L 476.091 494.184 L 476.091 478.511 L 490.093 470.686 Z " fill="rgb(217,49,200)"/><path d=" M 518.099 470.686 L 532.102 478.511 L 532.102 494.184 L 518.099 502.009 L 504.097 494.184 L 504.097 478.511 L 518.099 470.686 Z " fill="rgb(221,55,209)"/><path d=" M 546.104 470.686 L 560.106 478.511 L 560.106 494.184 L 546.104 502.009 L 532.102 494.184 L 532.102 478.511 L 546.104 470.686 Z " fill="rgb(244,60,240)"/><path d=" M 574.11 470.686 L 588.112 478.511 L 588.112 494.184 L 574.11 502.009 L 560.106 494.184 L 560.106 478.511 L 574.11 470.686 Z " fill="rgb(248,58,246)"/><clipPath id="_clipPath_fG0evRvtw1iB8ZXQN9HfzgpuEw0OoTne"><path d=" M 0.06 596 L 595.275 596 L 595.275 0.725 L 0.06 0.725 L 0.06 596 Z " fill="rgb(255,255,255)"/></clipPath><g clip-path="url(#_clipPath_fG0evRvtw1iB8ZXQN9HfzgpuEw0OoTne)"><path d=" M 595.275 474.508 L 588.112 478.511 L 588.112 494.184 L 595.275 498.187 L 595.275 474.508 Z " fill="rgb(249,58,248)"/><path d=" M 0 494.184 L 14.002 502.009 L 14.002 517.682 L 0 525.507 L 0 494.184 Z " fill="rgb(240,90,238)"/></g><path d=" M 28.005 494.184 L 42.008 502.009 L 42.008 517.682 L 28.005 525.507 L 14.002 517.682 L 14.002 502.009 L 28.005 494.184 Z " fill="rgb(237,77,236)"/><path d=" M 56.01 494.184 L 70.014 502.009 L 70.014 517.682 L 56.01 525.507 L 42.008 517.682 L 42.008 502.009 L 56.01 494.184 Z " fill="rgb(238,55,235)"/><path d=" M 84.016 494.184 L 98.019 502.009 L 98.019 517.682 L 84.016 525.507 L 70.014 517.682 L 70.014 502.009 L 84.016 494.184 Z " fill="rgb(232,53,219)"/><path d=" M 112.021 494.184 L 126.024 502.009 L 126.024 517.682 L 112.021 525.507 L 98.019 517.682 L 98.019 502.009 L 112.021 494.184 Z " fill="rgb(227,52,211)"/><path d=" M 140.027 494.184 L 154.029 502.009 L 154.029 517.682 L 140.027 525.507 L 126.024 517.682 L 126.024 502.009 L 140.027 494.184 Z " fill="rgb(240,55,237)"/><path d=" M 168.032 494.184 L 182.035 502.009 L 182.035 517.682 L 168.032 525.507 L 154.029 517.682 L 154.029 502.009 L 168.032 494.184 Z " fill="rgb(230,54,219)"/><path d=" M 196.037 494.184 L 210.04 502.009 L 210.04 517.682 L 196.037 525.507 L 182.035 517.682 L 182.035 502.009 L 196.037 494.184 Z " fill="rgb(223,52,207)"/><path d=" M 224.043 494.184 L 238.045 502.009 L 238.045 517.682 L 224.043 525.507 L 210.04 517.682 L 210.04 502.009 L 224.043 494.184 Z " fill="rgb(231,55,222)"/><path d=" M 252.048 494.184 L 266.051 502.009 L 266.051 517.682 L 252.048 525.507 L 238.045 517.682 L 238.045 502.009 L 252.048 494.184 Z " fill="rgb(239,73,234)"/><path d=" M 280.053 494.184 L 294.056 502.009 L 294.056 517.682 L 280.053 525.507 L 266.051 517.682 L 266.051 502.009 L 280.053 494.184 Z " fill="rgb(241,72,239)"/><path d=" M 308.059 494.184 L 322.061 502.009 L 322.061 517.682 L 308.059 525.507 L 294.056 517.682 L 294.056 502.009 L 308.059 494.184 Z " fill="rgb(243,58,248)"/><path d=" M 336.063 494.184 L 350.067 502.009 L 350.067 517.682 L 336.063 525.507 L 322.061 517.682 L 322.061 502.009 L 336.063 494.184 Z " fill="rgb(246,75,249)"/><path d=" M 364.069 494.184 L 378.072 502.009 L 378.072 517.682 L 364.069 525.507 L 350.067 517.682 L 350.067 502.009 L 364.069 494.184 Z " fill="rgb(248,81,249)"/><path d=" M 392.074 494.184 L 406.077 502.009 L 406.077 517.682 L 392.074 525.507 L 378.072 517.682 L 378.072 502.009 L 392.074 494.184 Z " fill="rgb(224,59,211)"/><path d=" M 420.081 494.184 L 434.083 502.009 L 434.083 517.682 L 420.081 525.507 L 406.077 517.682 L 406.077 502.009 L 420.081 494.184 Z " fill="rgb(223,56,202)"/><path d=" M 448.086 494.184 L 462.088 502.009 L 462.088 517.682 L 448.086 525.507 L 434.083 517.682 L 434.083 502.009 L 448.086 494.184 Z " fill="rgb(235,62,228)"/><path d=" M 476.091 494.184 L 490.093 502.009 L 490.093 517.682 L 476.091 525.507 L 462.088 517.682 L 462.088 502.009 L 476.091 494.184 Z " fill="rgb(223,56,218)"/><path d=" M 504.097 494.184 L 518.099 502.009 L 518.099 517.682 L 504.097 525.507 L 490.093 517.682 L 490.093 502.009 L 504.097 494.184 Z " fill="rgb(214,49,205)"/><path d=" M 532.102 494.184 L 546.104 502.009 L 546.104 517.682 L 532.102 525.507 L 518.099 517.682 L 518.099 502.009 L 532.102 494.184 Z " fill="rgb(227,54,223)"/><path d=" M 560.106 494.184 L 574.11 502.009 L 574.11 517.682 L 560.106 525.507 L 546.104 517.682 L 546.104 502.009 L 560.106 494.184 Z " fill="rgb(240,57,240)"/><clipPath id="_clipPath_lsAyRDW7z1CAavkOO9LYmWPSBSHDe7QP"><path d=" M 0.06 596 L 595.275 596 L 595.275 0.725 L 0.06 0.725 L 0.06 596 Z " fill="rgb(255,255,255)"/></clipPath><g clip-path="url(#_clipPath_lsAyRDW7z1CAavkOO9LYmWPSBSHDe7QP)"><path d=" M 595.275 498.187 L 588.112 494.184 L 574.11 502.009 L 574.11 517.682 L 588.112 525.507 L 595.275 521.504 L 595.275 498.187 Z " fill="rgb(244,56,246)"/><path d=" M 14.002 517.682 L 28.005 525.507 L 28.005 541.18 L 14.002 549.004 L 0 541.18 L 0 525.507 L 14.002 517.682 Z " fill="rgb(234,85,223)"/></g><path d=" M 42.008 517.682 L 56.01 525.507 L 56.01 541.18 L 42.008 549.004 L 28.005 541.18 L 28.005 525.507 L 42.008 517.682 Z " fill="rgb(232,54,219)"/><path d=" M 70.014 517.682 L 84.016 525.507 L 84.016 541.18 L 70.014 549.004 L 56.01 541.18 L 56.01 525.507 L 70.014 517.682 Z " fill="rgb(230,53,213)"/><path d=" M 98.019 517.682 L 112.021 525.507 L 112.021 541.18 L 98.019 549.004 L 84.016 541.18 L 84.016 525.507 L 98.019 517.682 Z " fill="rgb(223,51,196)"/><path d=" M 126.024 517.682 L 140.027 525.507 L 140.027 541.18 L 126.024 549.004 L 112.021 541.18 L 112.021 525.507 L 126.024 517.682 Z " fill="rgb(225,52,206)"/><path d=" M 154.029 517.682 L 168.032 525.507 L 168.032 541.18 L 154.029 549.004 L 140.027 541.18 L 140.027 525.507 L 154.029 517.682 Z " fill="rgb(239,57,235)"/><path d=" M 182.035 517.682 L 196.037 525.507 L 196.037 541.18 L 182.035 549.004 L 168.032 541.18 L 168.032 525.507 L 182.035 517.682 Z " fill="rgb(225,54,211)"/><path d=" M 210.04 517.682 L 224.043 525.507 L 224.043 541.18 L 210.04 549.004 L 196.037 541.18 L 196.037 525.507 L 210.04 517.682 Z " fill="rgb(219,49,197)"/><path d=" M 238.045 517.682 L 252.048 525.507 L 252.048 541.18 L 238.045 549.004 L 224.043 541.18 L 224.043 525.507 L 238.045 517.682 Z " fill="rgb(234,69,223)"/><path d=" M 266.051 517.682 L 280.053 525.507 L 280.053 541.18 L 266.051 549.004 L 252.048 541.18 L 252.048 525.507 L 266.051 517.682 Z " fill="rgb(246,92,244)"/><path d=" M 294.056 517.682 L 308.059 525.507 L 308.059 541.18 L 294.056 549.004 L 280.053 541.18 L 280.053 525.507 L 294.056 517.682 Z " fill="rgb(246,79,246)"/><path d=" M 322.061 517.682 L 336.063 525.507 L 336.063 541.18 L 322.061 549.004 L 308.059 541.18 L 308.059 525.507 L 322.061 517.682 Z " fill="rgb(246,73,248)"/><path d=" M 350.067 517.682 L 364.069 525.507 L 364.069 541.18 L 350.067 549.004 L 336.063 541.18 L 336.063 525.507 L 350.067 517.682 Z " fill="rgb(250,94,250)"/><path d=" M 378.072 517.682 L 392.074 525.507 L 392.074 541.18 L 378.072 549.004 L 364.069 541.18 L 364.069 525.507 L 378.072 517.682 Z " fill="rgb(239,93,235)"/><path d=" M 406.077 517.682 L 420.081 525.507 L 420.081 541.18 L 406.077 549.004 L 392.074 541.18 L 392.074 525.507 L 406.077 517.682 Z " fill="rgb(219,68,205)"/><path d=" M 434.083 517.682 L 448.086 525.507 L 448.086 541.18 L 434.083 549.004 L 420.081 541.18 L 420.081 525.507 L 434.083 517.682 Z " fill="rgb(223,59,210)"/><path d=" M 462.088 517.682 L 476.091 525.507 L 476.091 541.18 L 462.088 549.004 L 448.086 541.18 L 448.086 525.507 L 462.088 517.682 Z " fill="rgb(236,64,235)"/><path d=" M 490.093 517.682 L 504.097 525.507 L 504.097 541.18 L 490.093 549.004 L 476.091 541.18 L 476.091 525.507 L 490.093 517.682 Z " fill="rgb(219,52,211)"/><path d=" M 518.099 517.682 L 532.102 525.507 L 532.102 541.18 L 518.099 549.004 L 504.097 541.18 L 504.097 525.507 L 518.099 517.682 Z " fill="rgb(220,51,214)"/><path d=" M 546.104 517.682 L 560.106 525.507 L 560.106 541.18 L 546.104 549.004 L 532.102 541.18 L 532.102 525.507 L 546.104 517.682 Z " fill="rgb(232,54,235)"/><path d=" M 574.11 517.682 L 588.112 525.507 L 588.112 541.18 L 574.11 549.004 L 560.106 541.18 L 560.106 525.507 L 574.11 517.682 Z " fill="rgb(238,56,244)"/><clipPath id="_clipPath_qU4HeHKCGf4rokWqS6N5UNKlLnMXzoXL"><path d=" M 0.06 596 L 595.275 596 L 595.275 0.725 L 0.06 0.725 L 0.06 596 Z " fill="rgb(255,255,255)"/></clipPath><g clip-path="url(#_clipPath_qU4HeHKCGf4rokWqS6N5UNKlLnMXzoXL)"><path d=" M 595.275 521.504 L 588.112 525.507 L 588.112 541.18 L 595.275 545.183 L 595.275 521.504 Z " fill="rgb(247,60,250)"/><path d=" M 0 541.18 L 14.002 549.004 L 14.002 564.678 L 0 572.502 L 0 541.18 Z " fill="rgb(237,103,233)"/></g><path d=" M 28.005 541.18 L 42.008 549.004 L 42.008 564.678 L 28.005 572.502 L 14.002 564.678 L 14.002 549.004 L 28.005 541.18 Z " fill="rgb(228,75,210)"/><path d=" M 56.01 541.18 L 70.014 549.004 L 70.014 564.678 L 56.01 572.502 L 42.008 564.678 L 42.008 549.004 L 56.01 541.18 Z " fill="rgb(223,51,205)"/><path d=" M 84.016 541.18 L 98.019 549.004 L 98.019 564.678 L 84.016 572.502 L 70.014 564.678 L 70.014 549.004 L 84.016 541.18 Z " fill="rgb(220,51,189)"/><path d=" M 112.021 541.18 L 126.024 549.004 L 126.024 564.678 L 112.021 572.502 L 98.019 564.678 L 98.019 549.004 L 112.021 541.18 Z " fill="rgb(210,47,168)"/><path d=" M 140.027 541.18 L 154.029 549.004 L 154.029 564.678 L 140.027 572.502 L 126.024 564.678 L 126.024 549.004 L 140.027 541.18 Z " fill="rgb(222,51,207)"/><path d=" M 168.032 541.18 L 182.035 549.004 L 182.035 564.678 L 168.032 572.502 L 154.029 564.678 L 154.029 549.004 L 168.032 541.18 Z " fill="rgb(232,56,225)"/><path d=" M 196.037 541.18 L 210.04 549.004 L 210.04 564.678 L 196.037 572.502 L 182.035 564.678 L 182.035 549.004 L 196.037 541.18 Z " fill="rgb(225,55,209)"/><path d=" M 224.043 541.18 L 238.045 549.004 L 238.045 564.678 L 224.043 572.502 L 210.04 564.678 L 210.04 549.004 L 224.043 541.18 Z " fill="rgb(224,52,209)"/><path d=" M 252.048 541.18 L 266.051 549.004 L 266.051 564.678 L 252.048 572.502 L 238.045 564.678 L 238.045 549.004 L 252.048 541.18 Z " fill="rgb(238,82,234)"/><path d=" M 280.053 541.18 L 294.056 549.004 L 294.056 564.678 L 280.053 572.502 L 266.051 564.678 L 266.051 549.004 L 280.053 541.18 Z " fill="rgb(250,116,250)"/><path d=" M 308.059 541.18 L 322.061 549.004 L 322.061 564.678 L 308.059 572.502 L 294.056 564.678 L 294.056 549.004 L 308.059 541.18 Z " fill="rgb(250,95,250)"/><path d=" M 336.063 541.18 L 350.067 549.004 L 350.067 564.678 L 336.063 572.502 L 322.061 564.678 L 322.061 549.004 L 336.063 541.18 Z " fill="rgb(250,92,250)"/><path d=" M 364.069 541.18 L 378.072 549.004 L 378.072 564.678 L 364.069 572.502 L 350.067 564.678 L 350.067 549.004 L 364.069 541.18 Z " fill="rgb(251,111,250)"/><path d=" M 392.074 541.18 L 406.077 549.004 L 406.077 564.678 L 392.074 572.502 L 378.072 564.678 L 378.072 549.004 L 392.074 541.18 Z " fill="rgb(234,106,226)"/><path d=" M 420.081 541.18 L 434.083 549.004 L 434.083 564.678 L 420.081 572.502 L 406.077 564.678 L 406.077 549.004 L 420.081 541.18 Z " fill="rgb(220,83,212)"/><path d=" M 448.086 541.18 L 462.088 549.004 L 462.088 564.678 L 448.086 572.502 L 434.083 564.678 L 434.083 549.004 L 448.086 541.18 Z " fill="rgb(234,70,232)"/><path d=" M 476.091 541.18 L 490.093 549.004 L 490.093 564.678 L 476.091 572.502 L 462.088 564.678 L 462.088 549.004 L 476.091 541.18 Z " fill="rgb(238,64,237)"/><path d=" M 504.097 541.18 L 518.099 549.004 L 518.099 564.678 L 504.097 572.502 L 490.093 564.678 L 490.093 549.004 L 504.097 541.18 Z " fill="rgb(224,52,221)"/><path d=" M 532.102 541.18 L 546.104 549.004 L 546.104 564.678 L 532.102 572.502 L 518.099 564.678 L 518.099 549.004 L 532.102 541.18 Z " fill="rgb(227,57,225)"/><path d=" M 560.106 541.18 L 574.11 549.004 L 574.11 564.678 L 560.106 572.502 L 546.104 564.678 L 546.104 549.004 L 560.106 541.18 Z " fill="rgb(238,62,244)"/><clipPath id="_clipPath_bqePJ8vot7NsvbbKRhRBC4tP5jvrsJoX"><path d=" M 0.06 596 L 595.275 596 L 595.275 0.725 L 0.06 0.725 L 0.06 596 Z " fill="rgb(255,255,255)"/></clipPath><g clip-path="url(#_clipPath_bqePJ8vot7NsvbbKRhRBC4tP5jvrsJoX)"><path d=" M 595.275 545.183 L 588.112 541.18 L 574.11 549.004 L 574.11 564.678 L 588.112 572.502 L 595.275 568.499 L 595.275 545.183 Z " fill="rgb(243,64,248)"/><path d=" M 14.002 564.678 L 28.005 572.502 L 28.005 588.176 L 14.002 596 L 0 588.176 L 0 572.502 L 14.002 564.678 Z " fill="rgb(234,106,224)"/></g><path d=" M 42.008 564.678 L 56.01 572.502 L 56.01 588.176 L 42.008 596 L 28.005 588.176 L 28.005 572.502 L 42.008 564.678 Z " fill="rgb(223,64,207)"/><path d=" M 70.014 564.678 L 84.016 572.502 L 84.016 588.176 L 70.014 596 L 56.01 588.176 L 56.01 572.502 L 70.014 564.678 Z " fill="rgb(220,54,202)"/><path d=" M 98.019 564.678 L 112.021 572.502 L 112.021 588.176 L 98.019 596 L 84.016 588.176 L 84.016 572.502 L 98.019 564.678 Z " fill="rgb(207,49,168)"/><path d=" M 126.024 564.678 L 140.027 572.502 L 140.027 588.176 L 126.024 596 L 112.021 588.176 L 112.021 572.502 L 126.024 564.678 Z " fill="rgb(204,46,169)"/><path d=" M 154.029 564.678 L 168.032 572.502 L 168.032 588.176 L 154.029 596 L 140.027 588.176 L 140.027 572.502 L 154.029 564.678 Z " fill="rgb(233,55,227)"/><path d=" M 182.035 564.678 L 196.037 572.502 L 196.037 588.176 L 182.035 596 L 168.032 588.176 L 168.032 572.502 L 182.035 564.678 Z " fill="rgb(237,58,231)"/><path d=" M 210.04 564.678 L 224.043 572.502 L 224.043 588.176 L 210.04 596 L 196.037 588.176 L 196.037 572.502 L 210.04 564.678 Z " fill="rgb(227,57,212)"/><path d=" M 238.045 564.678 L 252.048 572.502 L 252.048 588.176 L 238.045 596 L 224.043 588.176 L 224.043 572.502 L 238.045 564.678 Z " fill="rgb(232,60,223)"/><path d=" M 266.051 564.678 L 280.053 572.502 L 280.053 588.176 L 266.051 596 L 252.048 588.176 L 252.048 572.502 L 266.051 564.678 Z " fill="rgb(250,112,249)"/><path d=" M 294.056 564.678 L 308.059 572.502 L 308.059 588.176 L 294.056 596 L 280.053 588.176 L 280.053 572.502 L 294.056 564.678 Z " fill="rgb(251,134,249)"/><path d=" M 322.061 564.678 L 336.063 572.502 L 336.063 588.176 L 322.061 596 L 308.059 588.176 L 308.059 572.502 L 322.061 564.678 Z " fill="rgb(250,95,249)"/><path d=" M 350.067 564.678 L 364.069 572.502 L 364.069 588.176 L 350.067 596 L 336.063 588.176 L 336.063 572.502 L 350.067 564.678 Z " fill="rgb(250,108,249)"/><path d=" M 378.072 564.678 L 392.074 572.502 L 392.074 588.176 L 378.072 596 L 364.069 588.176 L 364.069 572.502 L 378.072 564.678 Z " fill="rgb(251,126,249)"/><path d=" M 406.077 564.678 L 420.081 572.502 L 420.081 588.176 L 406.077 596 L 392.074 588.176 L 392.074 572.502 L 406.077 564.678 Z " fill="rgb(237,118,236)"/><path d=" M 434.083 564.678 L 448.086 572.502 L 448.086 588.176 L 434.083 596 L 420.081 588.176 L 420.081 572.502 L 434.083 564.678 Z " fill="rgb(232,100,232)"/><path d=" M 462.088 564.678 L 476.091 572.502 L 476.091 588.176 L 462.088 596 L 448.086 588.176 L 448.086 572.502 L 462.088 564.678 Z " fill="rgb(244,72,243)"/><path d=" M 490.093 564.678 L 504.097 572.502 L 504.097 588.176 L 490.093 596 L 476.091 588.176 L 476.091 572.502 L 490.093 564.678 Z " fill="rgb(237,58,235)"/><path d=" M 518.099 564.678 L 532.102 572.502 L 532.102 588.176 L 518.099 596 L 504.097 588.176 L 504.097 572.502 L 518.099 564.678 Z " fill="rgb(232,54,228)"/><path d=" M 546.104 564.678 L 560.106 572.502 L 560.106 588.176 L 546.104 596 L 532.102 588.176 L 532.102 572.502 L 546.104 564.678 Z " fill="rgb(238,75,241)"/><path d=" M 574.11 564.678 L 588.112 572.502 L 588.112 588.176 L 574.11 596 L 560.106 588.176 L 560.106 572.502 L 574.11 564.678 Z " fill="rgb(243,75,249)"/><clipPath id="_clipPath_xsvuin3NqbtCO9PP7pBhzRGrb578LTeL"><path d=" M 0.06 596 L 595.275 596 L 595.275 0.725 L 0.06 0.725 L 0.06 596 Z " fill="rgb(255,255,255)"/></clipPath><g clip-path="url(#_clipPath_xsvuin3NqbtCO9PP7pBhzRGrb578LTeL)"><path d=" M 595.275 568.499 L 588.112 572.502 L 588.112 588.176 L 595.275 592.179 L 595.275 568.499 Z " fill="rgb(247,74,251)"/><path d=" M 0 588.176 L 14.002 596 L 0 596 L 0 588.176 Z " fill="rgb(248,131,245)"/></g><path d=" M 28.005 588.176 L 42.008 596 L 14.002 596 L 28.005 588.176 Z " fill="rgb(226,87,213)"/><path d=" M 56.01 588.176 L 70.014 596 L 42.008 596 L 56.01 588.176 Z " fill="rgb(218,60,207)"/><path d=" M 84.016 588.176 L 98.019 596 L 70.014 596 L 84.016 588.176 Z " fill="rgb(214,58,194)"/><path d=" M 112.021 588.176 L 126.024 596 L 98.019 596 L 112.021 588.176 Z " fill="rgb(204,52,164)"/><path d=" M 140.027 588.176 L 154.029 596 L 126.024 596 L 140.027 588.176 Z " fill="rgb(214,49,198)"/><path d=" M 168.032 588.176 L 182.035 596 L 154.029 596 L 168.032 588.176 Z " fill="rgb(243,59,241)"/><path d=" M 196.037 588.176 L 210.04 596 L 182.035 596 L 196.037 588.176 Z " fill="rgb(235,61,226)"/><path d=" M 224.043 588.176 L 238.045 596 L 210.04 596 L 224.043 588.176 Z " fill="rgb(231,58,221)"/><path d=" M 252.048 588.176 L 266.051 596 L 238.045 596 L 252.048 588.176 Z " fill="rgb(243,75,238)"/><path d=" M 280.053 588.176 L 294.056 596 L 266.051 596 L 280.053 588.176 Z " fill="rgb(252,142,250)"/><path d=" M 308.059 588.176 L 322.061 596 L 294.056 596 L 308.059 588.176 Z " fill="rgb(250,136,247)"/><path d=" M 336.063 588.176 L 350.067 596 L 322.061 596 L 336.063 588.176 Z " fill="rgb(248,86,246)"/><path d=" M 364.069 588.176 L 378.072 596 L 350.067 596 L 364.069 588.176 Z " fill="rgb(250,112,248)"/><path d=" M 392.074 588.176 L 406.077 596 L 378.072 596 L 392.074 588.176 Z " fill="rgb(249,137,248)"/><path d=" M 420.081 588.176 L 434.083 596 L 406.077 596 L 420.081 588.176 Z " fill="rgb(240,125,243)"/><path d=" M 448.086 588.176 L 462.088 596 L 434.083 596 L 448.086 588.176 Z " fill="rgb(241,95,243)"/><path d=" M 476.091 588.176 L 490.093 596 L 462.088 596 L 476.091 588.176 Z " fill="rgb(245,69,241)"/><path d=" M 504.097 588.176 L 518.099 596 L 490.093 596 L 504.097 588.176 Z " fill="rgb(233,56,227)"/><path d=" M 532.102 588.176 L 546.104 596 L 518.099 596 L 532.102 588.176 Z " fill="rgb(235,69,235)"/><path d=" M 560.106 588.176 L 574.11 596 L 546.104 596 L 560.106 588.176 Z " fill="rgb(246,82,249)"/><path d=" M 595.275 592.179 L 588.112 588.176 L 574.11 596 L 595.275 596 L 595.275 592.179 Z " fill="rgb(245,74,248)"/><path d=" M 0 596 L 0 596 L 0 596 L 0 596 Z " fill="none"/></g></svg>